G04 PROTEUS GERBER X2 FILE*
%TF.GenerationSoftware,Labcenter,Proteus,8.6-SP2-Build23525*%
%TF.CreationDate,2017-11-29T10:51:07+00:00*%
%TF.FileFunction,Plated,1,4,PTH*%
%TF.FilePolarity,Positive*%
%TF.Part,Single*%
%FSLAX45Y45*%
%MOMM*%
G01*
%TA.AperFunction,ViaDrill*%
%ADD62C,0.762000*%
%ADD63C,0.508000*%
%TA.AperFunction,ComponentDrill*%
%ADD64C,0.762000*%
%TA.AperFunction,ComponentDrill*%
%ADD65C,1.270000*%
%TA.AperFunction,ComponentDrill*%
%ADD66C,1.016000*%
%ADD67C,1.143000*%
%TA.AperFunction,OtherDrill,Unknown*%
%ADD68C,3.200000*%
%TD.AperFunction*%
D62*
X+3421061Y-2785979D03*
X+3433610Y-3748906D03*
D63*
X+1807211Y+507732D03*
X+3373832Y+519251D03*
X-3253818Y-1022723D03*
X-3553607Y+119847D03*
X+0Y+180000D03*
X+1140000Y-1200000D03*
X+1140000Y-1440000D03*
X+1040155Y-2546585D03*
X+1579578Y-2546585D03*
X+2103288Y-2536111D03*
X+2033766Y-1024643D03*
X+10000Y-270000D03*
X-2380000Y-1210000D03*
X-4699000Y+124382D03*
D64*
X-4266000Y-2000000D03*
X-4012000Y-2000000D03*
X-3758000Y-2000000D03*
X-3504000Y-2000000D03*
X-3250000Y-2000000D03*
X-2996000Y-2000000D03*
X-2742000Y-2000000D03*
X-2488000Y-2000000D03*
X-2234000Y-2000000D03*
X-1980000Y-2000000D03*
X-1726000Y-2000000D03*
X-1472000Y-2000000D03*
X-1218000Y-2000000D03*
X-964000Y-2000000D03*
X-710000Y-2000000D03*
X-456000Y-2000000D03*
X-202000Y-2000000D03*
X+52000Y-2000000D03*
X+306000Y-2000000D03*
X+560000Y-2000000D03*
X+560000Y-476000D03*
X+306000Y-476000D03*
X+52000Y-476000D03*
X-202000Y-476000D03*
X-456000Y-476000D03*
X-710000Y-476000D03*
X-964000Y-476000D03*
X-1218000Y-476000D03*
X-1472000Y-476000D03*
X-1726000Y-476000D03*
X-1980000Y-476000D03*
X-2234000Y-476000D03*
X-2488000Y-476000D03*
X-2742000Y-476000D03*
X-2996000Y-476000D03*
X-3250000Y-476000D03*
X-3504000Y-476000D03*
X-3758000Y-476000D03*
X-4012000Y-476000D03*
X-4266000Y-476000D03*
D65*
X-7747000Y-381000D03*
X-7747000Y-889000D03*
X-7747000Y-1397000D03*
D66*
X-7750000Y+200000D03*
X-6734000Y+200000D03*
D67*
X-6500000Y-742000D03*
X-6500000Y-1250000D03*
D64*
X-5588000Y-508000D03*
X-5588000Y-1524000D03*
D66*
X-7500000Y+1000000D03*
X-7728600Y+1000000D03*
X-7957200Y+1000000D03*
D64*
X-6900000Y+1100000D03*
X-6900000Y+900000D03*
X-6250000Y+1200000D03*
X-6250000Y+1000000D03*
X-5216000Y+1200000D03*
X-4200000Y+1200000D03*
X-5207000Y+730000D03*
X-4191000Y+730000D03*
D66*
X-4220000Y+360000D03*
X-5236000Y+360000D03*
D64*
X-3340000Y+1186000D03*
X-3340000Y+170000D03*
D66*
X-3040000Y+1110000D03*
X-2786000Y+1110000D03*
D64*
X+4210000Y-310000D03*
X+3950000Y-310000D03*
X+3950000Y-1100000D03*
X+4210000Y-1100000D03*
X+4560000Y+90000D03*
X+4560000Y+1106000D03*
X+4350000Y+0D03*
X+3334000Y+0D03*
X+3500000Y-1000000D03*
X+3500000Y-2016000D03*
D66*
X+4300000Y+1150000D03*
X+4046000Y+1150000D03*
D64*
X+1310000Y-1750000D03*
X+1310000Y-2010000D03*
X+2100000Y-2010000D03*
X+2100000Y-1750000D03*
X+2384000Y-2170000D03*
X+3400000Y-2170000D03*
X+1014000Y-350000D03*
X+2030000Y-350000D03*
X+1034000Y-690000D03*
X+2050000Y-690000D03*
D66*
X+2546000Y+1150000D03*
X+2800000Y+1150000D03*
D65*
X-7747000Y-2413000D03*
X-7747000Y-2921000D03*
X-7747000Y-3429000D03*
D64*
X-6858000Y-2159000D03*
X-6604000Y-2159000D03*
X-6350000Y-2159000D03*
X-6650000Y-3358000D03*
X-6650000Y-3104000D03*
X-6650000Y-2850000D03*
X-5900000Y-2900000D03*
X-5900000Y-3100000D03*
X-5300000Y-2684000D03*
X-5300000Y-3700000D03*
D66*
X-4780000Y-2704000D03*
X-4780000Y-3720000D03*
X-4630000Y-2476000D03*
X-4630000Y-1460000D03*
X-3750000Y-3686000D03*
X-3750000Y-2670000D03*
D64*
X-3100000Y-2690000D03*
X-3100000Y-3706000D03*
X-2370000Y-2690000D03*
X-2370000Y-3706000D03*
X-5030000Y-1024000D03*
X-5030000Y-2040000D03*
X-5750000Y-2000000D03*
X-5496000Y-2000000D03*
D66*
X-4953000Y-127000D03*
X-4699000Y-127000D03*
X-4445000Y-127000D03*
X-4191000Y-127000D03*
X-3937000Y-127000D03*
D64*
X-1300000Y-2400000D03*
X-792000Y-2400000D03*
X-1800000Y-2554000D03*
X-1800000Y-2300000D03*
X-2032000Y-254000D03*
X-2286000Y-254000D03*
D65*
X+2365000Y-2944500D03*
X+3000000Y-2944500D03*
X+2365000Y-2500000D03*
X+3000000Y-2500000D03*
X+2405000Y-104500D03*
X+3040000Y-104500D03*
X+2405000Y+340000D03*
X+3040000Y+340000D03*
X+2413000Y-1460500D03*
X+3048000Y-1460500D03*
X+2413000Y-1016000D03*
X+3048000Y-1016000D03*
D64*
X-976000Y-1640000D03*
X-1230000Y-1640000D03*
D66*
X+3346000Y+1150000D03*
X+3600000Y+1150000D03*
D65*
X+4220000Y-1516000D03*
X+4220000Y-2024000D03*
X+4220000Y-2532000D03*
X+4220000Y-3040000D03*
D66*
X+1276000Y+500000D03*
X+1530000Y+500000D03*
D64*
X+1984000Y+750000D03*
X+3000000Y+750000D03*
X-266000Y+1000000D03*
X+750000Y+1000000D03*
X-1276000Y-3620000D03*
X-260000Y-3620000D03*
X+1330000Y-2754000D03*
X+1330000Y-3770000D03*
X+280000Y-3610000D03*
X+540000Y-3610000D03*
X+540000Y-2820000D03*
X+280000Y-2820000D03*
D66*
X+1012000Y+500000D03*
X+758000Y+500000D03*
X+504000Y+500000D03*
X+250000Y+500000D03*
X-4000Y+500000D03*
X-258000Y+500000D03*
X-512000Y+500000D03*
X-766000Y+500000D03*
X-1020000Y+500000D03*
X-1274000Y+500000D03*
X-1528000Y+500000D03*
X-1782000Y+500000D03*
X-2036000Y+500000D03*
X-2290000Y+500000D03*
D68*
X+4000000Y-3710000D03*
X-6030000Y-3670000D03*
X-5990000Y+480000D03*
X+4010000Y+530000D03*
M02*
