G04 PROTEUS GERBER X2 FILE*
%TF.GenerationSoftware,Labcenter,Proteus,8.6-SP2-Build23525*%
%TF.CreationDate,2017-11-29T10:51:07+00:00*%
%TF.FileFunction,Legend,Top*%
%TF.FilePolarity,Positive*%
%TF.Part,Single*%
%FSLAX45Y45*%
%MOMM*%
G01*
%TA.AperFunction,Profile*%
%ADD27C,0.203200*%
%TA.AperFunction,Material*%
%ADD31C,0.203200*%
%TA.AperFunction,NonMaterial*%
%ADD32C,0.203200*%
%TD.AperFunction*%
D27*
X-8250000Y-4000000D02*
X+4750000Y-4000000D01*
X+4750000Y+1500000D01*
X-8250000Y+1500000D01*
X-8250000Y-4000000D01*
D31*
X-4139000Y-1238000D02*
X-4144080Y-1186248D01*
X-4158685Y-1138305D01*
X-4181862Y-1095125D01*
X-4212660Y-1057660D01*
X-4250125Y-1026862D01*
X-4293305Y-1003685D01*
X-4341248Y-989080D01*
X-4393000Y-984000D01*
X-4139000Y-1238000D02*
X-4144080Y-1290482D01*
X-4158685Y-1338767D01*
X-4181862Y-1381991D01*
X-4212660Y-1419292D01*
X-4250125Y-1449807D01*
X-4293305Y-1472672D01*
X-4341248Y-1487024D01*
X-4393000Y-1492000D01*
X-4393000Y-984000D02*
X-4393000Y-603000D01*
X+687000Y-603000D02*
X+687000Y-1873000D01*
X-4393000Y-1873000D02*
X-4393000Y-1492000D01*
X-4393000Y-603000D02*
X+687000Y-603000D01*
X-4393000Y-1873000D02*
X+687000Y-1873000D01*
X-4525080Y-1365000D02*
X-4448880Y-1365000D01*
X-4433640Y-1349125D01*
X-4433640Y-1285625D01*
X-4448880Y-1269750D01*
X-4525080Y-1269750D01*
X-4464120Y-1142750D02*
X-4464120Y-1238000D01*
X-4525080Y-1174500D01*
X-4433640Y-1174500D01*
D32*
X-8250000Y-4250000D02*
X+4750000Y-4250000D01*
X-8250000Y-4250000D02*
X-8123000Y-4377000D01*
X-8250000Y-4250000D02*
X-8123000Y-4123000D01*
X+4750000Y-4250000D02*
X+4623000Y-4123000D01*
X+4750000Y-4250000D02*
X+4623000Y-4377000D01*
X-1718250Y-4250000D02*
X-1718359Y-4247366D01*
X-1719249Y-4242097D01*
X-1721111Y-4236828D01*
X-1724154Y-4231559D01*
X-1728809Y-4226357D01*
X-1734078Y-4222531D01*
X-1739347Y-4220091D01*
X-1744616Y-4218710D01*
X-1749885Y-4218250D01*
X-1750000Y-4218250D01*
X-1781750Y-4250000D02*
X-1781641Y-4247366D01*
X-1780751Y-4242097D01*
X-1778889Y-4236828D01*
X-1775846Y-4231559D01*
X-1771191Y-4226357D01*
X-1765922Y-4222531D01*
X-1760653Y-4220091D01*
X-1755384Y-4218710D01*
X-1750115Y-4218250D01*
X-1750000Y-4218250D01*
X-1781750Y-4250000D02*
X-1781641Y-4252634D01*
X-1780751Y-4257903D01*
X-1778889Y-4263172D01*
X-1775846Y-4268441D01*
X-1771191Y-4273643D01*
X-1765922Y-4277469D01*
X-1760653Y-4279909D01*
X-1755384Y-4281290D01*
X-1750115Y-4281750D01*
X-1750000Y-4281750D01*
X-1718250Y-4250000D02*
X-1718359Y-4252634D01*
X-1719249Y-4257903D01*
X-1721111Y-4263172D01*
X-1724154Y-4268441D01*
X-1728809Y-4273643D01*
X-1734078Y-4277469D01*
X-1739347Y-4279909D01*
X-1744616Y-4281290D01*
X-1749885Y-4281750D01*
X-1750000Y-4281750D01*
X-2035750Y-4648400D02*
X-2004000Y-4617920D01*
X-2004000Y-4709360D01*
X-1924625Y-4633160D02*
X-1908750Y-4617920D01*
X-1861125Y-4617920D01*
X-1845250Y-4633160D01*
X-1845250Y-4648400D01*
X-1861125Y-4663640D01*
X-1845250Y-4678880D01*
X-1845250Y-4694120D01*
X-1861125Y-4709360D01*
X-1908750Y-4709360D01*
X-1924625Y-4694120D01*
X-1892875Y-4663640D02*
X-1861125Y-4663640D01*
X-1813500Y-4694120D02*
X-1813500Y-4633160D01*
X-1797625Y-4617920D01*
X-1734125Y-4617920D01*
X-1718250Y-4633160D01*
X-1718250Y-4694120D01*
X-1734125Y-4709360D01*
X-1797625Y-4709360D01*
X-1813500Y-4694120D01*
X-1813500Y-4709360D02*
X-1718250Y-4617920D01*
X-1686500Y-4709360D02*
X-1686500Y-4648400D01*
X-1686500Y-4663640D02*
X-1670625Y-4648400D01*
X-1638875Y-4678880D01*
X-1607125Y-4648400D01*
X-1591250Y-4663640D01*
X-1591250Y-4709360D01*
X-1559500Y-4709360D02*
X-1559500Y-4648400D01*
X-1559500Y-4663640D02*
X-1543625Y-4648400D01*
X-1511875Y-4678880D01*
X-1480125Y-4648400D01*
X-1464250Y-4663640D01*
X-1464250Y-4709360D01*
D31*
X-1750000Y-4000000D02*
X-1750000Y+1500000D01*
X-7239000Y-127000D02*
X-8255000Y-127000D01*
X-7239000Y-1651000D02*
X-8255000Y-1651000D01*
X-8255000Y-127000D02*
X-8255000Y-1651000D01*
X-7239000Y-1651000D02*
X-7239000Y-127000D01*
X-7137400Y-1016000D02*
X-7122160Y-1016000D01*
X-7106920Y-1000125D01*
X-7106920Y-936625D01*
X-7122160Y-920750D01*
X-7198360Y-920750D01*
X-7167880Y-857250D02*
X-7198360Y-825500D01*
X-7106920Y-825500D01*
X-7501080Y+65380D02*
X-6982920Y+65380D01*
X-6982920Y+332080D01*
X-7501080Y+332080D01*
X-7501080Y+65380D01*
X-7064200Y+67920D02*
X-7064200Y+329540D01*
X-6911800Y+200000D02*
X-6982920Y+200000D01*
X-7501080Y+200000D02*
X-7572200Y+200000D01*
X-7369000Y-66700D02*
X-7369000Y+24740D01*
X-7305500Y+24740D01*
X-7273750Y-5740D01*
X-7273750Y-36220D01*
X-7305500Y-66700D01*
X-7369000Y-66700D01*
X-7146750Y+24740D02*
X-7226125Y+24740D01*
X-7226125Y-5740D01*
X-7162625Y-5740D01*
X-7146750Y-20980D01*
X-7146750Y-51460D01*
X-7162625Y-66700D01*
X-7210250Y-66700D01*
X-7226125Y-51460D01*
X-5992000Y-996000D02*
X-5993553Y-956313D01*
X-6006150Y-876938D01*
X-6032360Y-797563D01*
X-6074695Y-718188D01*
X-6138778Y-638813D01*
X-6218142Y-573365D01*
X-6297517Y-530098D01*
X-6376892Y-503143D01*
X-6456267Y-489886D01*
X-6500000Y-488000D01*
X-7008000Y-996000D02*
X-7006447Y-956313D01*
X-6993850Y-876938D01*
X-6967640Y-797563D01*
X-6925305Y-718188D01*
X-6861222Y-638813D01*
X-6781858Y-573365D01*
X-6702483Y-530098D01*
X-6623108Y-503143D01*
X-6543733Y-489886D01*
X-6500000Y-488000D01*
X-7008000Y-996000D02*
X-7006447Y-1035687D01*
X-6993850Y-1115062D01*
X-6967640Y-1194437D01*
X-6925305Y-1273812D01*
X-6861222Y-1353187D01*
X-6781858Y-1418635D01*
X-6702483Y-1461902D01*
X-6623108Y-1488857D01*
X-6543733Y-1502114D01*
X-6500000Y-1504000D01*
X-5992000Y-996000D02*
X-5993553Y-1035687D01*
X-6006150Y-1115062D01*
X-6032360Y-1194437D01*
X-6074695Y-1273812D01*
X-6138778Y-1353187D01*
X-6218142Y-1418635D01*
X-6297517Y-1461902D01*
X-6376892Y-1488857D01*
X-6456267Y-1502114D01*
X-6500000Y-1504000D01*
X-6246000Y-678500D02*
X-6246000Y-805500D01*
X-6182500Y-742000D02*
X-6309500Y-742000D01*
X-5875160Y-1027490D02*
X-5859920Y-1043365D01*
X-5859920Y-1090990D01*
X-5890400Y-1122740D01*
X-5920880Y-1122740D01*
X-5951360Y-1090990D01*
X-5951360Y-1043365D01*
X-5936120Y-1027490D01*
X-5936120Y-979865D02*
X-5951360Y-963990D01*
X-5951360Y-916365D01*
X-5936120Y-900490D01*
X-5920880Y-900490D01*
X-5905640Y-916365D01*
X-5890400Y-900490D01*
X-5875160Y-900490D01*
X-5859920Y-916365D01*
X-5859920Y-963990D01*
X-5875160Y-979865D01*
X-5905640Y-948115D02*
X-5905640Y-916365D01*
X-5842000Y-1651000D02*
X-5334000Y-1651000D01*
X-5334000Y-381000D01*
X-5842000Y-381000D01*
X-5842000Y-1651000D01*
X-5217160Y-1301750D02*
X-5201920Y-1317625D01*
X-5201920Y-1365250D01*
X-5232400Y-1397000D01*
X-5262880Y-1397000D01*
X-5293360Y-1365250D01*
X-5293360Y-1317625D01*
X-5278120Y-1301750D01*
X-5278120Y-1174750D02*
X-5293360Y-1190625D01*
X-5293360Y-1238250D01*
X-5278120Y-1254125D01*
X-5217160Y-1254125D01*
X-5201920Y-1238250D01*
X-5201920Y-1190625D01*
X-5217160Y-1174750D01*
X-5232400Y-1174750D01*
X-5247640Y-1190625D01*
X-5247640Y-1254125D01*
X-8084200Y+873000D02*
X-7373000Y+873000D01*
X-7373000Y+1127000D01*
X-8084200Y+1127000D01*
X-8084200Y+873000D01*
X-7373000Y+873000D02*
X-7373000Y+746000D01*
X-8084200Y+746000D01*
X-8084200Y+873000D01*
X-7373000Y+873000D02*
X-7500000Y+746000D01*
X-7500000Y+873000D02*
X-7627000Y+746000D01*
X-7627000Y+873000D02*
X-7754000Y+746000D01*
X-7754000Y+873000D02*
X-7881000Y+746000D01*
X-7881000Y+873000D02*
X-8008000Y+746000D01*
X-8008000Y+873000D02*
X-8084200Y+796800D01*
X-7855600Y+705360D02*
X-7855600Y+629160D01*
X-7839725Y+613920D01*
X-7776225Y+613920D01*
X-7760350Y+629160D01*
X-7760350Y+705360D01*
X-7696850Y+674880D02*
X-7665100Y+705360D01*
X-7665100Y+613920D01*
X-6630000Y+1000000D02*
X-6630876Y+1021729D01*
X-6637988Y+1065189D01*
X-6652825Y+1108649D01*
X-6676924Y+1152109D01*
X-6713731Y+1195458D01*
X-6757191Y+1229141D01*
X-6800651Y+1251057D01*
X-6844111Y+1264152D01*
X-6887571Y+1269714D01*
X-6900000Y+1270000D01*
X-7170000Y+1000000D02*
X-7169124Y+1021729D01*
X-7162012Y+1065189D01*
X-7147175Y+1108649D01*
X-7123076Y+1152109D01*
X-7086269Y+1195458D01*
X-7042809Y+1229141D01*
X-6999349Y+1251057D01*
X-6955889Y+1264152D01*
X-6912429Y+1269714D01*
X-6900000Y+1270000D01*
X-7170000Y+1000000D02*
X-7169124Y+978271D01*
X-7162012Y+934811D01*
X-7147175Y+891351D01*
X-7123076Y+847891D01*
X-7086269Y+804542D01*
X-7042809Y+770859D01*
X-6999349Y+748943D01*
X-6955889Y+735848D01*
X-6912429Y+730286D01*
X-6900000Y+730000D01*
X-6630000Y+1000000D02*
X-6630876Y+978271D01*
X-6637988Y+934811D01*
X-6652825Y+891351D01*
X-6676924Y+847891D01*
X-6713731Y+804542D01*
X-6757191Y+770859D01*
X-6800651Y+748943D01*
X-6844111Y+735848D01*
X-6887571Y+730286D01*
X-6900000Y+730000D01*
X-6700000Y+1100000D02*
X-6800000Y+1100000D01*
X-6750000Y+1150000D02*
X-6750000Y+1050000D01*
X-6567160Y+987890D02*
X-6551920Y+972015D01*
X-6551920Y+924390D01*
X-6582400Y+892640D01*
X-6612880Y+892640D01*
X-6643360Y+924390D01*
X-6643360Y+972015D01*
X-6628120Y+987890D01*
X-6582400Y+1114890D02*
X-6582400Y+1019640D01*
X-6643360Y+1083140D01*
X-6551920Y+1083140D01*
X-5980000Y+1100000D02*
X-5980876Y+1121729D01*
X-5987988Y+1165189D01*
X-6002825Y+1208649D01*
X-6026924Y+1252109D01*
X-6063731Y+1295458D01*
X-6107191Y+1329141D01*
X-6150651Y+1351057D01*
X-6194111Y+1364152D01*
X-6237571Y+1369714D01*
X-6250000Y+1370000D01*
X-6520000Y+1100000D02*
X-6519124Y+1121729D01*
X-6512012Y+1165189D01*
X-6497175Y+1208649D01*
X-6473076Y+1252109D01*
X-6436269Y+1295458D01*
X-6392809Y+1329141D01*
X-6349349Y+1351057D01*
X-6305889Y+1364152D01*
X-6262429Y+1369714D01*
X-6250000Y+1370000D01*
X-6520000Y+1100000D02*
X-6519124Y+1078271D01*
X-6512012Y+1034811D01*
X-6497175Y+991351D01*
X-6473076Y+947891D01*
X-6436269Y+904542D01*
X-6392809Y+870859D01*
X-6349349Y+848943D01*
X-6305889Y+835848D01*
X-6262429Y+830286D01*
X-6250000Y+830000D01*
X-5980000Y+1100000D02*
X-5980876Y+1078271D01*
X-5987988Y+1034811D01*
X-6002825Y+991351D01*
X-6026924Y+947891D01*
X-6063731Y+904542D01*
X-6107191Y+870859D01*
X-6150651Y+848943D01*
X-6194111Y+835848D01*
X-6237571Y+830286D01*
X-6250000Y+830000D01*
X-6050000Y+1200000D02*
X-6150000Y+1200000D01*
X-6100000Y+1250000D02*
X-6100000Y+1150000D01*
X-5863160Y+1069190D02*
X-5847920Y+1053315D01*
X-5847920Y+1005690D01*
X-5878400Y+973940D01*
X-5908880Y+973940D01*
X-5939360Y+1005690D01*
X-5939360Y+1053315D01*
X-5924120Y+1069190D01*
X-5939360Y+1196190D02*
X-5939360Y+1116815D01*
X-5908880Y+1116815D01*
X-5908880Y+1180315D01*
X-5893640Y+1196190D01*
X-5863160Y+1196190D01*
X-5847920Y+1180315D01*
X-5847920Y+1132690D01*
X-5863160Y+1116815D01*
X-5343000Y+946000D02*
X-4073000Y+946000D01*
X-4073000Y+1454000D01*
X-5343000Y+1454000D01*
X-5343000Y+946000D01*
X-4485750Y+1509880D02*
X-4501625Y+1494640D01*
X-4549250Y+1494640D01*
X-4581000Y+1525120D01*
X-4581000Y+1555600D01*
X-4549250Y+1586080D01*
X-4501625Y+1586080D01*
X-4485750Y+1570840D01*
X-4438125Y+1586080D02*
X-4358750Y+1586080D01*
X-4358750Y+1570840D01*
X-4438125Y+1494640D01*
X-5334000Y+476000D02*
X-4064000Y+476000D01*
X-4064000Y+984000D01*
X-5334000Y+984000D01*
X-5334000Y+476000D01*
X-4476750Y+1039880D02*
X-4492625Y+1024640D01*
X-4540250Y+1024640D01*
X-4572000Y+1055120D01*
X-4572000Y+1085600D01*
X-4540250Y+1116080D01*
X-4492625Y+1116080D01*
X-4476750Y+1100840D01*
X-4413250Y+1070360D02*
X-4429125Y+1085600D01*
X-4429125Y+1100840D01*
X-4413250Y+1116080D01*
X-4365625Y+1116080D01*
X-4349750Y+1100840D01*
X-4349750Y+1085600D01*
X-4365625Y+1070360D01*
X-4413250Y+1070360D01*
X-4429125Y+1055120D01*
X-4429125Y+1039880D01*
X-4413250Y+1024640D01*
X-4365625Y+1024640D01*
X-4349750Y+1039880D01*
X-4349750Y+1055120D01*
X-4365625Y+1070360D01*
X-4987080Y+227920D02*
X-4468920Y+227920D01*
X-4468920Y+494620D01*
X-4987080Y+494620D01*
X-4987080Y+227920D01*
X-4905800Y+492080D02*
X-4905800Y+230460D01*
X-5058200Y+360000D02*
X-4987080Y+360000D01*
X-4468920Y+360000D02*
X-4397800Y+360000D01*
X-4855000Y+535260D02*
X-4855000Y+626700D01*
X-4791500Y+626700D01*
X-4759750Y+596220D01*
X-4759750Y+565740D01*
X-4791500Y+535260D01*
X-4855000Y+535260D01*
X-4632750Y+611460D02*
X-4648625Y+626700D01*
X-4696250Y+626700D01*
X-4712125Y+611460D01*
X-4712125Y+550500D01*
X-4696250Y+535260D01*
X-4648625Y+535260D01*
X-4632750Y+550500D01*
X-4632750Y+565740D01*
X-4648625Y+580980D01*
X-4712125Y+580980D01*
X-3340000Y+1059000D02*
X-3340000Y+932000D01*
X-3403500Y+424000D02*
X-3276500Y+424000D01*
X-3276500Y+932000D01*
X-3403500Y+932000D01*
X-3403500Y+424000D01*
X-3340000Y+424000D02*
X-3340000Y+297000D01*
X-3144420Y+551000D02*
X-3235860Y+551000D01*
X-3235860Y+630375D01*
X-3220620Y+646250D01*
X-3205380Y+646250D01*
X-3190140Y+630375D01*
X-3190140Y+551000D01*
X-3190140Y+630375D02*
X-3174900Y+646250D01*
X-3144420Y+646250D01*
X-3205380Y+709750D02*
X-3235860Y+741500D01*
X-3144420Y+741500D01*
X-2659000Y+1110000D02*
X-2659827Y+1130483D01*
X-2666545Y+1171450D01*
X-2680563Y+1212417D01*
X-2703341Y+1253384D01*
X-2738141Y+1294229D01*
X-2779108Y+1325845D01*
X-2820075Y+1346392D01*
X-2861042Y+1358629D01*
X-2902009Y+1363762D01*
X-2913000Y+1364000D01*
X-3167000Y+1110000D02*
X-3166173Y+1130483D01*
X-3159455Y+1171450D01*
X-3145437Y+1212417D01*
X-3122659Y+1253384D01*
X-3087859Y+1294229D01*
X-3046892Y+1325845D01*
X-3005925Y+1346392D01*
X-2964958Y+1358629D01*
X-2923991Y+1363762D01*
X-2913000Y+1364000D01*
X-3167000Y+1110000D02*
X-3166173Y+1089517D01*
X-3159455Y+1048550D01*
X-3145437Y+1007583D01*
X-3122659Y+966616D01*
X-3087859Y+925771D01*
X-3046892Y+894155D01*
X-3005925Y+873608D01*
X-2964958Y+861371D01*
X-2923991Y+856238D01*
X-2913000Y+856000D01*
X-2659000Y+1110000D02*
X-2659827Y+1089517D01*
X-2666545Y+1048550D01*
X-2680563Y+1007583D01*
X-2703341Y+966616D01*
X-2738141Y+925771D01*
X-2779108Y+894155D01*
X-2820075Y+873608D01*
X-2861042Y+861371D01*
X-2902009Y+856238D01*
X-2913000Y+856000D01*
X-3230500Y+1364000D02*
X-3103500Y+1364000D01*
X-3167000Y+1427500D02*
X-3167000Y+1300500D01*
X-3135250Y+1468140D02*
X-3135250Y+1559580D01*
X-3071750Y+1559580D01*
X-3040000Y+1529100D01*
X-3040000Y+1498620D01*
X-3071750Y+1468140D01*
X-3135250Y+1468140D01*
X-2976500Y+1529100D02*
X-2944750Y+1559580D01*
X-2944750Y+1468140D01*
X-2786000Y+1498620D02*
X-2881250Y+1498620D01*
X-2817750Y+1559580D01*
X-2817750Y+1468140D01*
X+4337000Y-836000D02*
X+4337000Y-963000D01*
X+3829000Y-963000D01*
X+3829000Y-455000D01*
X+4337000Y-455000D01*
X+4337000Y-582000D01*
X+4210000Y-709000D02*
X+4212436Y-734876D01*
X+4219485Y-758848D01*
X+4230762Y-780438D01*
X+4245878Y-799170D01*
X+4264446Y-814569D01*
X+4286081Y-826158D01*
X+4310394Y-833460D01*
X+4337000Y-836000D01*
X+4210000Y-709000D02*
X+4212436Y-682394D01*
X+4219485Y-658081D01*
X+4230762Y-636446D01*
X+4245878Y-617878D01*
X+4264446Y-602762D01*
X+4286081Y-591485D01*
X+4310394Y-584436D01*
X+4337000Y-582000D01*
X+4377640Y-818000D02*
X+4453840Y-818000D01*
X+4469080Y-802125D01*
X+4469080Y-738625D01*
X+4453840Y-722750D01*
X+4377640Y-722750D01*
X+4377640Y-595750D02*
X+4377640Y-675125D01*
X+4408120Y-675125D01*
X+4408120Y-611625D01*
X+4423360Y-595750D01*
X+4453840Y-595750D01*
X+4469080Y-611625D01*
X+4469080Y-659250D01*
X+4453840Y-675125D01*
X+4560000Y+217000D02*
X+4560000Y+344000D01*
X+4496500Y+344000D02*
X+4623500Y+344000D01*
X+4623500Y+852000D01*
X+4496500Y+852000D01*
X+4496500Y+344000D01*
X+4560000Y+852000D02*
X+4560000Y+979000D01*
X+4455860Y+407500D02*
X+4364420Y+407500D01*
X+4364420Y+486875D01*
X+4379660Y+502750D01*
X+4394900Y+502750D01*
X+4410140Y+486875D01*
X+4410140Y+407500D01*
X+4410140Y+486875D02*
X+4425380Y+502750D01*
X+4455860Y+502750D01*
X+4394900Y+566250D02*
X+4364420Y+598000D01*
X+4455860Y+598000D01*
X+4379660Y+677375D02*
X+4364420Y+693250D01*
X+4364420Y+740875D01*
X+4379660Y+756750D01*
X+4394900Y+756750D01*
X+4410140Y+740875D01*
X+4410140Y+693250D01*
X+4425380Y+677375D01*
X+4455860Y+677375D01*
X+4455860Y+756750D01*
X+4223000Y+0D02*
X+4096000Y+0D01*
X+3588000Y-63500D02*
X+4096000Y-63500D01*
X+4096000Y+63500D01*
X+3588000Y+63500D01*
X+3588000Y-63500D01*
X+3588000Y+0D02*
X+3461000Y+0D01*
X+3651500Y-195580D02*
X+3651500Y-104140D01*
X+3730875Y-104140D01*
X+3746750Y-119380D01*
X+3746750Y-134620D01*
X+3730875Y-149860D01*
X+3651500Y-149860D01*
X+3730875Y-149860D02*
X+3746750Y-165100D01*
X+3746750Y-195580D01*
X+3810250Y-134620D02*
X+3842000Y-104140D01*
X+3842000Y-195580D01*
X+3921375Y-119380D02*
X+3937250Y-104140D01*
X+3984875Y-104140D01*
X+4000750Y-119380D01*
X+4000750Y-134620D01*
X+3984875Y-149860D01*
X+4000750Y-165100D01*
X+4000750Y-180340D01*
X+3984875Y-195580D01*
X+3937250Y-195580D01*
X+3921375Y-180340D01*
X+3953125Y-149860D02*
X+3984875Y-149860D01*
X+3500000Y-1127000D02*
X+3500000Y-1254000D01*
X+3436500Y-1762000D02*
X+3563500Y-1762000D01*
X+3563500Y-1254000D01*
X+3436500Y-1254000D01*
X+3436500Y-1762000D01*
X+3500000Y-1762000D02*
X+3500000Y-1889000D01*
X+3695580Y-1635000D02*
X+3604140Y-1635000D01*
X+3604140Y-1555625D01*
X+3619380Y-1539750D01*
X+3634620Y-1539750D01*
X+3649860Y-1555625D01*
X+3649860Y-1635000D01*
X+3649860Y-1555625D02*
X+3665100Y-1539750D01*
X+3695580Y-1539750D01*
X+3619380Y-1492125D02*
X+3604140Y-1476250D01*
X+3604140Y-1428625D01*
X+3619380Y-1412750D01*
X+3634620Y-1412750D01*
X+3649860Y-1428625D01*
X+3649860Y-1476250D01*
X+3665100Y-1492125D01*
X+3695580Y-1492125D01*
X+3695580Y-1412750D01*
X+4427000Y+1150000D02*
X+4426173Y+1170483D01*
X+4419455Y+1211450D01*
X+4405437Y+1252417D01*
X+4382659Y+1293384D01*
X+4347859Y+1334229D01*
X+4306892Y+1365845D01*
X+4265925Y+1386392D01*
X+4224958Y+1398629D01*
X+4183991Y+1403762D01*
X+4173000Y+1404000D01*
X+3919000Y+1150000D02*
X+3919827Y+1170483D01*
X+3926545Y+1211450D01*
X+3940563Y+1252417D01*
X+3963341Y+1293384D01*
X+3998141Y+1334229D01*
X+4039108Y+1365845D01*
X+4080075Y+1386392D01*
X+4121042Y+1398629D01*
X+4162009Y+1403762D01*
X+4173000Y+1404000D01*
X+3919000Y+1150000D02*
X+3919827Y+1129517D01*
X+3926545Y+1088550D01*
X+3940563Y+1047583D01*
X+3963341Y+1006616D01*
X+3998141Y+965771D01*
X+4039108Y+934155D01*
X+4080075Y+913608D01*
X+4121042Y+901371D01*
X+4162009Y+896238D01*
X+4173000Y+896000D01*
X+4427000Y+1150000D02*
X+4426173Y+1129517D01*
X+4419455Y+1088550D01*
X+4405437Y+1047583D01*
X+4382659Y+1006616D01*
X+4347859Y+965771D01*
X+4306892Y+934155D01*
X+4265925Y+913608D01*
X+4224958Y+901371D01*
X+4183991Y+896238D01*
X+4173000Y+896000D01*
X+4490500Y+896000D02*
X+4363500Y+896000D01*
X+4427000Y+832500D02*
X+4427000Y+959500D01*
X+4077750Y+700420D02*
X+4077750Y+791860D01*
X+4141250Y+791860D01*
X+4173000Y+761380D01*
X+4173000Y+730900D01*
X+4141250Y+700420D01*
X+4077750Y+700420D01*
X+4300000Y+730900D02*
X+4204750Y+730900D01*
X+4268250Y+791860D01*
X+4268250Y+700420D01*
X+1836000Y-1623000D02*
X+1963000Y-1623000D01*
X+1963000Y-2131000D01*
X+1455000Y-2131000D01*
X+1455000Y-1623000D01*
X+1582000Y-1623000D01*
X+1709000Y-1750000D02*
X+1734876Y-1747564D01*
X+1758848Y-1740515D01*
X+1780438Y-1729238D01*
X+1799170Y-1714122D01*
X+1814569Y-1695554D01*
X+1826158Y-1673919D01*
X+1833460Y-1649606D01*
X+1836000Y-1623000D01*
X+1709000Y-1750000D02*
X+1682394Y-1747564D01*
X+1658081Y-1740515D01*
X+1636446Y-1729238D01*
X+1617878Y-1714122D01*
X+1602762Y-1695554D01*
X+1591485Y-1673919D01*
X+1584436Y-1649606D01*
X+1582000Y-1623000D01*
X+1564000Y-1490920D02*
X+1564000Y-1567120D01*
X+1579875Y-1582360D01*
X+1643375Y-1582360D01*
X+1659250Y-1567120D01*
X+1659250Y-1490920D01*
X+1706875Y-1506160D02*
X+1722750Y-1490920D01*
X+1770375Y-1490920D01*
X+1786250Y-1506160D01*
X+1786250Y-1521400D01*
X+1770375Y-1536640D01*
X+1722750Y-1536640D01*
X+1706875Y-1551880D01*
X+1706875Y-1582360D01*
X+1786250Y-1582360D01*
X+2511000Y-2170000D02*
X+2638000Y-2170000D01*
X+2638000Y-2233500D02*
X+3146000Y-2233500D01*
X+3146000Y-2106500D01*
X+2638000Y-2106500D01*
X+2638000Y-2233500D01*
X+3146000Y-2170000D02*
X+3273000Y-2170000D01*
X+2765000Y-2065860D02*
X+2765000Y-1974420D01*
X+2844375Y-1974420D01*
X+2860250Y-1989660D01*
X+2860250Y-2004900D01*
X+2844375Y-2020140D01*
X+2765000Y-2020140D01*
X+2844375Y-2020140D02*
X+2860250Y-2035380D01*
X+2860250Y-2065860D01*
X+2987250Y-1989660D02*
X+2971375Y-1974420D01*
X+2923750Y-1974420D01*
X+2907875Y-1989660D01*
X+2907875Y-2050620D01*
X+2923750Y-2065860D01*
X+2971375Y-2065860D01*
X+2987250Y-2050620D01*
X+2987250Y-2035380D01*
X+2971375Y-2020140D01*
X+2907875Y-2020140D01*
X+1141000Y-350000D02*
X+1268000Y-350000D01*
X+1268000Y-413500D02*
X+1776000Y-413500D01*
X+1776000Y-286500D01*
X+1268000Y-286500D01*
X+1268000Y-413500D01*
X+1776000Y-350000D02*
X+1903000Y-350000D01*
X+1395000Y-245860D02*
X+1395000Y-154420D01*
X+1474375Y-154420D01*
X+1490250Y-169660D01*
X+1490250Y-184900D01*
X+1474375Y-200140D01*
X+1395000Y-200140D01*
X+1474375Y-200140D02*
X+1490250Y-215380D01*
X+1490250Y-245860D01*
X+1537875Y-169660D02*
X+1553750Y-154420D01*
X+1601375Y-154420D01*
X+1617250Y-169660D01*
X+1617250Y-184900D01*
X+1601375Y-200140D01*
X+1617250Y-215380D01*
X+1617250Y-230620D01*
X+1601375Y-245860D01*
X+1553750Y-245860D01*
X+1537875Y-230620D01*
X+1569625Y-200140D02*
X+1601375Y-200140D01*
X+1161000Y-690000D02*
X+1288000Y-690000D01*
X+1288000Y-753500D02*
X+1796000Y-753500D01*
X+1796000Y-626500D01*
X+1288000Y-626500D01*
X+1288000Y-753500D01*
X+1796000Y-690000D02*
X+1923000Y-690000D01*
X+1415000Y-585860D02*
X+1415000Y-494420D01*
X+1494375Y-494420D01*
X+1510250Y-509660D01*
X+1510250Y-524900D01*
X+1494375Y-540140D01*
X+1415000Y-540140D01*
X+1494375Y-540140D02*
X+1510250Y-555380D01*
X+1510250Y-585860D01*
X+1637250Y-494420D02*
X+1557875Y-494420D01*
X+1557875Y-524900D01*
X+1621375Y-524900D01*
X+1637250Y-540140D01*
X+1637250Y-570620D01*
X+1621375Y-585860D01*
X+1573750Y-585860D01*
X+1557875Y-570620D01*
X+2927000Y+1150000D02*
X+2926173Y+1170483D01*
X+2919455Y+1211450D01*
X+2905437Y+1252417D01*
X+2882659Y+1293384D01*
X+2847859Y+1334229D01*
X+2806892Y+1365845D01*
X+2765925Y+1386392D01*
X+2724958Y+1398629D01*
X+2683991Y+1403762D01*
X+2673000Y+1404000D01*
X+2419000Y+1150000D02*
X+2419827Y+1170483D01*
X+2426545Y+1211450D01*
X+2440563Y+1252417D01*
X+2463341Y+1293384D01*
X+2498141Y+1334229D01*
X+2539108Y+1365845D01*
X+2580075Y+1386392D01*
X+2621042Y+1398629D01*
X+2662009Y+1403762D01*
X+2673000Y+1404000D01*
X+2419000Y+1150000D02*
X+2419827Y+1129517D01*
X+2426545Y+1088550D01*
X+2440563Y+1047583D01*
X+2463341Y+1006616D01*
X+2498141Y+965771D01*
X+2539108Y+934155D01*
X+2580075Y+913608D01*
X+2621042Y+901371D01*
X+2662009Y+896238D01*
X+2673000Y+896000D01*
X+2927000Y+1150000D02*
X+2926173Y+1129517D01*
X+2919455Y+1088550D01*
X+2905437Y+1047583D01*
X+2882659Y+1006616D01*
X+2847859Y+965771D01*
X+2806892Y+934155D01*
X+2765925Y+913608D01*
X+2724958Y+901371D01*
X+2683991Y+896238D01*
X+2673000Y+896000D01*
X+2355500Y+1404000D02*
X+2482500Y+1404000D01*
X+2419000Y+1467500D02*
X+2419000Y+1340500D01*
X+2514250Y+1508140D02*
X+2514250Y+1599580D01*
X+2577750Y+1599580D01*
X+2609500Y+1569100D01*
X+2609500Y+1538620D01*
X+2577750Y+1508140D01*
X+2514250Y+1508140D01*
X+2673000Y+1569100D02*
X+2704750Y+1599580D01*
X+2704750Y+1508140D01*
X-7239000Y-2159000D02*
X-8255000Y-2159000D01*
X-7239000Y-3683000D02*
X-8255000Y-3683000D01*
X-8255000Y-2159000D02*
X-8255000Y-3683000D01*
X-7239000Y-3683000D02*
X-7239000Y-2159000D01*
X-7137400Y-3048000D02*
X-7122160Y-3048000D01*
X-7106920Y-3032125D01*
X-7106920Y-2968625D01*
X-7122160Y-2952750D01*
X-7198360Y-2952750D01*
X-7183120Y-2905125D02*
X-7198360Y-2889250D01*
X-7198360Y-2841625D01*
X-7183120Y-2825750D01*
X-7167880Y-2825750D01*
X-7152640Y-2841625D01*
X-7152640Y-2889250D01*
X-7137400Y-2905125D01*
X-7106920Y-2905125D01*
X-7106920Y-2825750D01*
X-6985000Y-1905000D02*
X-6223000Y-1905000D01*
X-6096000Y-2032000D01*
X-6096000Y-2286000D01*
X-6223000Y-2413000D01*
X-6985000Y-2413000D01*
X-7112000Y-2286000D01*
X-7112000Y-2032000D01*
X-6985000Y-1905000D01*
X-6731000Y-1772920D02*
X-6635750Y-1864360D01*
X-6731000Y-1864360D02*
X-6635750Y-1772920D01*
X-6588125Y-1788160D02*
X-6572250Y-1772920D01*
X-6524625Y-1772920D01*
X-6508750Y-1788160D01*
X-6508750Y-1803400D01*
X-6524625Y-1818640D01*
X-6572250Y-1818640D01*
X-6588125Y-1833880D01*
X-6588125Y-1864360D01*
X-6508750Y-1864360D01*
X-6904000Y-3485000D02*
X-6904000Y-2723000D01*
X-6777000Y-2596000D01*
X-6523000Y-2596000D01*
X-6396000Y-2723000D01*
X-6396000Y-3485000D01*
X-6523000Y-3612000D01*
X-6777000Y-3612000D01*
X-6904000Y-3485000D01*
X-7036080Y-3231000D02*
X-6944640Y-3135750D01*
X-6944640Y-3231000D02*
X-7036080Y-3135750D01*
X-7020840Y-3088125D02*
X-7036080Y-3072250D01*
X-7036080Y-3024625D01*
X-7020840Y-3008750D01*
X-7005600Y-3008750D01*
X-6990360Y-3024625D01*
X-6975120Y-3008750D01*
X-6959880Y-3008750D01*
X-6944640Y-3024625D01*
X-6944640Y-3072250D01*
X-6959880Y-3088125D01*
X-6990360Y-3056375D02*
X-6990360Y-3024625D01*
X-5630000Y-3000000D02*
X-5630876Y-2978271D01*
X-5637988Y-2934811D01*
X-5652825Y-2891351D01*
X-5676924Y-2847891D01*
X-5713731Y-2804542D01*
X-5757191Y-2770859D01*
X-5800651Y-2748943D01*
X-5844111Y-2735848D01*
X-5887571Y-2730286D01*
X-5900000Y-2730000D01*
X-6170000Y-3000000D02*
X-6169124Y-2978271D01*
X-6162012Y-2934811D01*
X-6147175Y-2891351D01*
X-6123076Y-2847891D01*
X-6086269Y-2804542D01*
X-6042809Y-2770859D01*
X-5999349Y-2748943D01*
X-5955889Y-2735848D01*
X-5912429Y-2730286D01*
X-5900000Y-2730000D01*
X-6170000Y-3000000D02*
X-6169124Y-3021729D01*
X-6162012Y-3065189D01*
X-6147175Y-3108649D01*
X-6123076Y-3152109D01*
X-6086269Y-3195458D01*
X-6042809Y-3229141D01*
X-5999349Y-3251057D01*
X-5955889Y-3264152D01*
X-5912429Y-3269714D01*
X-5900000Y-3270000D01*
X-5630000Y-3000000D02*
X-5630876Y-3021729D01*
X-5637988Y-3065189D01*
X-5652825Y-3108649D01*
X-5676924Y-3152109D01*
X-5713731Y-3195458D01*
X-5757191Y-3229141D01*
X-5800651Y-3251057D01*
X-5844111Y-3264152D01*
X-5887571Y-3269714D01*
X-5900000Y-3270000D01*
X-5700000Y-2900000D02*
X-5800000Y-2900000D01*
X-5750000Y-2850000D02*
X-5750000Y-2950000D01*
X-5513160Y-3094310D02*
X-5497920Y-3110185D01*
X-5497920Y-3157810D01*
X-5528400Y-3189560D01*
X-5558880Y-3189560D01*
X-5589360Y-3157810D01*
X-5589360Y-3110185D01*
X-5574120Y-3094310D01*
X-5558880Y-3030810D02*
X-5589360Y-2999060D01*
X-5497920Y-2999060D01*
X-5558880Y-2903810D02*
X-5589360Y-2872060D01*
X-5497920Y-2872060D01*
X-5300000Y-2811000D02*
X-5300000Y-2938000D01*
X-5363500Y-3446000D02*
X-5236500Y-3446000D01*
X-5236500Y-2938000D01*
X-5363500Y-2938000D01*
X-5363500Y-3446000D01*
X-5300000Y-3446000D02*
X-5300000Y-3573000D01*
X-5104420Y-3319000D02*
X-5195860Y-3319000D01*
X-5195860Y-3239625D01*
X-5180620Y-3223750D01*
X-5165380Y-3223750D01*
X-5150140Y-3239625D01*
X-5150140Y-3319000D01*
X-5150140Y-3239625D02*
X-5134900Y-3223750D01*
X-5104420Y-3223750D01*
X-5195860Y-3176125D02*
X-5195860Y-3096750D01*
X-5180620Y-3096750D01*
X-5104420Y-3176125D01*
X-4914620Y-3471080D02*
X-4647920Y-3471080D01*
X-4647920Y-2952920D01*
X-4914620Y-2952920D01*
X-4914620Y-3471080D01*
X-4912080Y-3389800D02*
X-4650460Y-3389800D01*
X-4780000Y-3542200D02*
X-4780000Y-3471080D01*
X-4780000Y-2952920D02*
X-4780000Y-2881800D01*
X-4955260Y-3339000D02*
X-5046700Y-3339000D01*
X-5046700Y-3275500D01*
X-5016220Y-3243750D01*
X-4985740Y-3243750D01*
X-4955260Y-3275500D01*
X-4955260Y-3339000D01*
X-5046700Y-3196125D02*
X-5046700Y-3116750D01*
X-5031460Y-3116750D01*
X-4955260Y-3196125D01*
X-4762080Y-2227080D02*
X-4495380Y-2227080D01*
X-4495380Y-1708920D01*
X-4762080Y-1708920D01*
X-4762080Y-2227080D01*
X-4497920Y-1790200D02*
X-4759540Y-1790200D01*
X-4630000Y-1637800D02*
X-4630000Y-1708920D01*
X-4630000Y-2227080D02*
X-4630000Y-2298200D01*
X-4363300Y-2095000D02*
X-4454740Y-2095000D01*
X-4454740Y-2031500D01*
X-4424260Y-1999750D01*
X-4393780Y-1999750D01*
X-4363300Y-2031500D01*
X-4363300Y-2095000D01*
X-4409020Y-1936250D02*
X-4424260Y-1952125D01*
X-4439500Y-1952125D01*
X-4454740Y-1936250D01*
X-4454740Y-1888625D01*
X-4439500Y-1872750D01*
X-4424260Y-1872750D01*
X-4409020Y-1888625D01*
X-4409020Y-1936250D01*
X-4393780Y-1952125D01*
X-4378540Y-1952125D01*
X-4363300Y-1936250D01*
X-4363300Y-1888625D01*
X-4378540Y-1872750D01*
X-4393780Y-1872750D01*
X-4409020Y-1888625D01*
X-3882080Y-3437080D02*
X-3615380Y-3437080D01*
X-3615380Y-2918920D01*
X-3882080Y-2918920D01*
X-3882080Y-3437080D01*
X-3617920Y-3000200D02*
X-3879540Y-3000200D01*
X-3750000Y-2847800D02*
X-3750000Y-2918920D01*
X-3750000Y-3437080D02*
X-3750000Y-3508200D01*
X-3483300Y-3305000D02*
X-3574740Y-3305000D01*
X-3574740Y-3241500D01*
X-3544260Y-3209750D01*
X-3513780Y-3209750D01*
X-3483300Y-3241500D01*
X-3483300Y-3305000D01*
X-3559500Y-3162125D02*
X-3574740Y-3146250D01*
X-3574740Y-3098625D01*
X-3559500Y-3082750D01*
X-3544260Y-3082750D01*
X-3529020Y-3098625D01*
X-3513780Y-3082750D01*
X-3498540Y-3082750D01*
X-3483300Y-3098625D01*
X-3483300Y-3146250D01*
X-3498540Y-3162125D01*
X-3529020Y-3130375D02*
X-3529020Y-3098625D01*
X-3354000Y-3833000D02*
X-2846000Y-3833000D01*
X-2846000Y-2563000D01*
X-3354000Y-2563000D01*
X-3354000Y-3833000D01*
X-2729160Y-3229750D02*
X-2713920Y-3245625D01*
X-2713920Y-3293250D01*
X-2744400Y-3325000D01*
X-2774880Y-3325000D01*
X-2805360Y-3293250D01*
X-2805360Y-3245625D01*
X-2790120Y-3229750D01*
X-2774880Y-3102750D02*
X-2759640Y-3118625D01*
X-2759640Y-3166250D01*
X-2774880Y-3182125D01*
X-2790120Y-3182125D01*
X-2805360Y-3166250D01*
X-2805360Y-3118625D01*
X-2790120Y-3102750D01*
X-2729160Y-3102750D01*
X-2713920Y-3118625D01*
X-2713920Y-3166250D01*
X-2370000Y-2817000D02*
X-2370000Y-2944000D01*
X-2433500Y-3452000D02*
X-2306500Y-3452000D01*
X-2306500Y-2944000D01*
X-2433500Y-2944000D01*
X-2433500Y-3452000D01*
X-2370000Y-3452000D02*
X-2370000Y-3579000D01*
X-2174420Y-3325000D02*
X-2265860Y-3325000D01*
X-2265860Y-3245625D01*
X-2250620Y-3229750D01*
X-2235380Y-3229750D01*
X-2220140Y-3245625D01*
X-2220140Y-3325000D01*
X-2220140Y-3245625D02*
X-2204900Y-3229750D01*
X-2174420Y-3229750D01*
X-2204900Y-3102750D02*
X-2204900Y-3198000D01*
X-2265860Y-3134500D01*
X-2174420Y-3134500D01*
X-5030000Y-1151000D02*
X-5030000Y-1278000D01*
X-5093500Y-1786000D02*
X-4966500Y-1786000D01*
X-4966500Y-1278000D01*
X-5093500Y-1278000D01*
X-5093500Y-1786000D01*
X-5030000Y-1786000D02*
X-5030000Y-1913000D01*
X-4834420Y-1722500D02*
X-4925860Y-1722500D01*
X-4925860Y-1643125D01*
X-4910620Y-1627250D01*
X-4895380Y-1627250D01*
X-4880140Y-1643125D01*
X-4880140Y-1722500D01*
X-4880140Y-1643125D02*
X-4864900Y-1627250D01*
X-4834420Y-1627250D01*
X-4895380Y-1563750D02*
X-4925860Y-1532000D01*
X-4834420Y-1532000D01*
X-4925860Y-1373250D02*
X-4925860Y-1452625D01*
X-4895380Y-1452625D01*
X-4895380Y-1389125D01*
X-4880140Y-1373250D01*
X-4849660Y-1373250D01*
X-4834420Y-1389125D01*
X-4834420Y-1436750D01*
X-4849660Y-1452625D01*
X-5877000Y-2000000D02*
X-5871920Y-1974124D01*
X-5857315Y-1950152D01*
X-5834138Y-1928562D01*
X-5803340Y-1909830D01*
X-5765875Y-1894431D01*
X-5722695Y-1882842D01*
X-5674752Y-1875540D01*
X-5623000Y-1873000D01*
X-5369000Y-2000000D02*
X-5374080Y-1974124D01*
X-5388685Y-1950152D01*
X-5411862Y-1928562D01*
X-5442660Y-1909830D01*
X-5480125Y-1894431D01*
X-5523305Y-1882842D01*
X-5571248Y-1875540D01*
X-5623000Y-1873000D01*
X-5877000Y-2000000D02*
X-5871920Y-2025876D01*
X-5857315Y-2049848D01*
X-5834138Y-2071438D01*
X-5803340Y-2090170D01*
X-5765875Y-2105569D01*
X-5722695Y-2117158D01*
X-5674752Y-2124460D01*
X-5623000Y-2127000D01*
X-5369000Y-2000000D02*
X-5374080Y-2025876D01*
X-5388685Y-2049848D01*
X-5411862Y-2071438D01*
X-5442660Y-2090170D01*
X-5480125Y-2105569D01*
X-5523305Y-2117158D01*
X-5571248Y-2124460D01*
X-5623000Y-2127000D01*
X-5718250Y-1817120D02*
X-5734125Y-1832360D01*
X-5781750Y-1832360D01*
X-5813500Y-1801880D01*
X-5813500Y-1771400D01*
X-5781750Y-1740920D01*
X-5734125Y-1740920D01*
X-5718250Y-1756160D01*
X-5654750Y-1771400D02*
X-5623000Y-1740920D01*
X-5623000Y-1832360D01*
X-5543625Y-1756160D02*
X-5527750Y-1740920D01*
X-5480125Y-1740920D01*
X-5464250Y-1756160D01*
X-5464250Y-1771400D01*
X-5480125Y-1786640D01*
X-5527750Y-1786640D01*
X-5543625Y-1801880D01*
X-5543625Y-1832360D01*
X-5464250Y-1832360D01*
X-5080000Y-254000D02*
X-3810000Y-254000D01*
X-3810000Y+0D01*
X-5080000Y+0D01*
X-5080000Y-254000D01*
X-4619625Y+132080D02*
X-4556125Y+132080D01*
X-4587875Y+132080D02*
X-4587875Y+40640D01*
X-4619625Y+40640D02*
X-4556125Y+40640D01*
X-4508500Y+55880D02*
X-4492625Y+40640D01*
X-4429125Y+40640D01*
X-4413250Y+55880D01*
X-4413250Y+71120D01*
X-4429125Y+86360D01*
X-4492625Y+86360D01*
X-4508500Y+101600D01*
X-4508500Y+116840D01*
X-4492625Y+132080D01*
X-4429125Y+132080D01*
X-4413250Y+116840D01*
X-4381500Y+40640D02*
X-4381500Y+132080D01*
X-4302125Y+132080D01*
X-4286250Y+116840D01*
X-4286250Y+101600D01*
X-4302125Y+86360D01*
X-4381500Y+86360D01*
X-1427000Y-2146000D02*
X-665000Y-2146000D01*
X-538000Y-2273000D01*
X-538000Y-2527000D01*
X-665000Y-2654000D01*
X-1427000Y-2654000D01*
X-1554000Y-2527000D01*
X-1554000Y-2273000D01*
X-1427000Y-2146000D01*
X-1173000Y-2013920D02*
X-1077750Y-2105360D01*
X-1173000Y-2105360D02*
X-1077750Y-2013920D01*
X-950750Y-2074880D02*
X-1046000Y-2074880D01*
X-982500Y-2013920D01*
X-982500Y-2105360D01*
X-1800000Y-2681000D02*
X-1825876Y-2675920D01*
X-1849848Y-2661315D01*
X-1871438Y-2638138D01*
X-1890170Y-2607340D01*
X-1905569Y-2569875D01*
X-1917158Y-2526695D01*
X-1924460Y-2478752D01*
X-1927000Y-2427000D01*
X-1800000Y-2173000D02*
X-1825876Y-2178080D01*
X-1849848Y-2192685D01*
X-1871438Y-2215862D01*
X-1890170Y-2246660D01*
X-1905569Y-2284125D01*
X-1917158Y-2327305D01*
X-1924460Y-2375248D01*
X-1927000Y-2427000D01*
X-1800000Y-2681000D02*
X-1774124Y-2675920D01*
X-1750152Y-2661315D01*
X-1728562Y-2638138D01*
X-1709830Y-2607340D01*
X-1694431Y-2569875D01*
X-1682842Y-2526695D01*
X-1675540Y-2478752D01*
X-1673000Y-2427000D01*
X-1800000Y-2173000D02*
X-1774124Y-2178080D01*
X-1750152Y-2192685D01*
X-1728562Y-2215862D01*
X-1709830Y-2246660D01*
X-1694431Y-2284125D01*
X-1682842Y-2327305D01*
X-1675540Y-2375248D01*
X-1673000Y-2427000D01*
X-1982880Y-2458750D02*
X-1967640Y-2474625D01*
X-1967640Y-2522250D01*
X-1998120Y-2554000D01*
X-2028600Y-2554000D01*
X-2059080Y-2522250D01*
X-2059080Y-2474625D01*
X-2043840Y-2458750D01*
X-2028600Y-2395250D02*
X-2059080Y-2363500D01*
X-1967640Y-2363500D01*
X-1905000Y-254000D02*
X-1910080Y-279876D01*
X-1924685Y-303848D01*
X-1947862Y-325438D01*
X-1978660Y-344170D01*
X-2016125Y-359569D01*
X-2059305Y-371158D01*
X-2107248Y-378460D01*
X-2159000Y-381000D01*
X-2413000Y-254000D02*
X-2407920Y-279876D01*
X-2393315Y-303848D01*
X-2370138Y-325438D01*
X-2339340Y-344170D01*
X-2301875Y-359569D01*
X-2258695Y-371158D01*
X-2210752Y-378460D01*
X-2159000Y-381000D01*
X-1905000Y-254000D02*
X-1910080Y-228124D01*
X-1924685Y-204152D01*
X-1947862Y-182562D01*
X-1978660Y-163830D01*
X-2016125Y-148431D01*
X-2059305Y-136842D01*
X-2107248Y-129540D01*
X-2159000Y-127000D01*
X-2413000Y-254000D02*
X-2407920Y-228124D01*
X-2393315Y-204152D01*
X-2370138Y-182562D01*
X-2339340Y-163830D01*
X-2301875Y-148431D01*
X-2258695Y-136842D01*
X-2210752Y-129540D01*
X-2159000Y-127000D01*
X-2254250Y-497840D02*
X-2270125Y-513080D01*
X-2317750Y-513080D01*
X-2349500Y-482600D01*
X-2349500Y-452120D01*
X-2317750Y-421640D01*
X-2270125Y-421640D01*
X-2254250Y-436880D01*
X-2190750Y-452120D02*
X-2159000Y-421640D01*
X-2159000Y-513080D01*
X-2079625Y-436880D02*
X-2063750Y-421640D01*
X-2016125Y-421640D01*
X-2000250Y-436880D01*
X-2000250Y-452120D01*
X-2016125Y-467360D01*
X-2000250Y-482600D01*
X-2000250Y-497840D01*
X-2016125Y-513080D01*
X-2063750Y-513080D01*
X-2079625Y-497840D01*
X-2047875Y-467360D02*
X-2016125Y-467360D01*
X+2873000Y-2722250D02*
X+2872369Y-2706763D01*
X+2867247Y-2675788D01*
X+2856551Y-2644813D01*
X+2839143Y-2613838D01*
X+2812521Y-2583021D01*
X+2781546Y-2559523D01*
X+2750571Y-2544327D01*
X+2719596Y-2535397D01*
X+2688621Y-2531848D01*
X+2682500Y-2531750D01*
X+2492000Y-2722250D02*
X+2492631Y-2706763D01*
X+2497753Y-2675788D01*
X+2508449Y-2644813D01*
X+2525857Y-2613838D01*
X+2552479Y-2583021D01*
X+2583454Y-2559523D01*
X+2614429Y-2544327D01*
X+2645404Y-2535397D01*
X+2676379Y-2531848D01*
X+2682500Y-2531750D01*
X+2492000Y-2722250D02*
X+2492631Y-2737737D01*
X+2497753Y-2768712D01*
X+2508449Y-2799687D01*
X+2525857Y-2830662D01*
X+2552479Y-2861479D01*
X+2583454Y-2884977D01*
X+2614429Y-2900173D01*
X+2645404Y-2909103D01*
X+2676379Y-2912652D01*
X+2682500Y-2912750D01*
X+2873000Y-2722250D02*
X+2872369Y-2737737D01*
X+2867247Y-2768712D01*
X+2856551Y-2799687D01*
X+2839143Y-2830662D01*
X+2812521Y-2861479D01*
X+2781546Y-2884977D01*
X+2750571Y-2900173D01*
X+2719596Y-2909103D01*
X+2688621Y-2912652D01*
X+2682500Y-2912750D01*
X+2365000Y-2341250D02*
X+3000000Y-2341250D01*
X+3000000Y-2658750D02*
X+3000000Y-2785750D01*
X+2365000Y-3103250D02*
X+3000000Y-3103250D01*
X+2365000Y-2658750D02*
X+2365000Y-2785750D01*
X+2634875Y-2254890D02*
X+2714250Y-2254890D01*
X+2913000Y+117750D02*
X+2912369Y+133237D01*
X+2907247Y+164212D01*
X+2896551Y+195187D01*
X+2879143Y+226162D01*
X+2852521Y+256979D01*
X+2821546Y+280477D01*
X+2790571Y+295673D01*
X+2759596Y+304603D01*
X+2728621Y+308152D01*
X+2722500Y+308250D01*
X+2532000Y+117750D02*
X+2532631Y+133237D01*
X+2537753Y+164212D01*
X+2548449Y+195187D01*
X+2565857Y+226162D01*
X+2592479Y+256979D01*
X+2623454Y+280477D01*
X+2654429Y+295673D01*
X+2685404Y+304603D01*
X+2716379Y+308152D01*
X+2722500Y+308250D01*
X+2532000Y+117750D02*
X+2532631Y+102263D01*
X+2537753Y+71288D01*
X+2548449Y+40313D01*
X+2565857Y+9338D01*
X+2592479Y-21479D01*
X+2623454Y-44977D01*
X+2654429Y-60173D01*
X+2685404Y-69103D01*
X+2716379Y-72652D01*
X+2722500Y-72750D01*
X+2913000Y+117750D02*
X+2912369Y+102263D01*
X+2907247Y+71288D01*
X+2896551Y+40313D01*
X+2879143Y+9338D01*
X+2852521Y-21479D01*
X+2821546Y-44977D01*
X+2790571Y-60173D01*
X+2759596Y-69103D01*
X+2728621Y-72652D01*
X+2722500Y-72750D01*
X+2405000Y+498750D02*
X+3040000Y+498750D01*
X+3040000Y+181250D02*
X+3040000Y+54250D01*
X+2405000Y-263250D02*
X+3040000Y-263250D01*
X+2405000Y+181250D02*
X+2405000Y+54250D01*
X+2659000Y+585110D02*
X+2754250Y+585110D01*
X+2706625Y+615590D02*
X+2706625Y+554630D01*
X+2921000Y-1238250D02*
X+2920369Y-1222763D01*
X+2915247Y-1191788D01*
X+2904551Y-1160813D01*
X+2887143Y-1129838D01*
X+2860521Y-1099021D01*
X+2829546Y-1075523D01*
X+2798571Y-1060327D01*
X+2767596Y-1051397D01*
X+2736621Y-1047848D01*
X+2730500Y-1047750D01*
X+2540000Y-1238250D02*
X+2540631Y-1222763D01*
X+2545753Y-1191788D01*
X+2556449Y-1160813D01*
X+2573857Y-1129838D01*
X+2600479Y-1099021D01*
X+2631454Y-1075523D01*
X+2662429Y-1060327D01*
X+2693404Y-1051397D01*
X+2724379Y-1047848D01*
X+2730500Y-1047750D01*
X+2540000Y-1238250D02*
X+2540631Y-1253737D01*
X+2545753Y-1284712D01*
X+2556449Y-1315687D01*
X+2573857Y-1346662D01*
X+2600479Y-1377479D01*
X+2631454Y-1400977D01*
X+2662429Y-1416173D01*
X+2693404Y-1425103D01*
X+2724379Y-1428652D01*
X+2730500Y-1428750D01*
X+2921000Y-1238250D02*
X+2920369Y-1253737D01*
X+2915247Y-1284712D01*
X+2904551Y-1315687D01*
X+2887143Y-1346662D01*
X+2860521Y-1377479D01*
X+2829546Y-1400977D01*
X+2798571Y-1416173D01*
X+2767596Y-1425103D01*
X+2736621Y-1428652D01*
X+2730500Y-1428750D01*
X+2413000Y-857250D02*
X+3048000Y-857250D01*
X+3048000Y-1174750D02*
X+3048000Y-1301750D01*
X+2413000Y-1619250D02*
X+3048000Y-1619250D01*
X+2413000Y-1174750D02*
X+2413000Y-1301750D01*
X+2667000Y-816610D02*
X+2667000Y-725170D01*
X+2714625Y-770890D01*
X+2762250Y-725170D01*
X+2762250Y-816610D01*
X-6011500Y-3317500D02*
X+2388500Y-3317500D01*
X+2388500Y+1082500D01*
X-6011500Y+1082500D01*
X-6011500Y-3317500D01*
X+3727000Y+1150000D02*
X+3726173Y+1170483D01*
X+3719455Y+1211450D01*
X+3705437Y+1252417D01*
X+3682659Y+1293384D01*
X+3647859Y+1334229D01*
X+3606892Y+1365845D01*
X+3565925Y+1386392D01*
X+3524958Y+1398629D01*
X+3483991Y+1403762D01*
X+3473000Y+1404000D01*
X+3219000Y+1150000D02*
X+3219827Y+1170483D01*
X+3226545Y+1211450D01*
X+3240563Y+1252417D01*
X+3263341Y+1293384D01*
X+3298141Y+1334229D01*
X+3339108Y+1365845D01*
X+3380075Y+1386392D01*
X+3421042Y+1398629D01*
X+3462009Y+1403762D01*
X+3473000Y+1404000D01*
X+3219000Y+1150000D02*
X+3219827Y+1129517D01*
X+3226545Y+1088550D01*
X+3240563Y+1047583D01*
X+3263341Y+1006616D01*
X+3298141Y+965771D01*
X+3339108Y+934155D01*
X+3380075Y+913608D01*
X+3421042Y+901371D01*
X+3462009Y+896238D01*
X+3473000Y+896000D01*
X+3727000Y+1150000D02*
X+3726173Y+1129517D01*
X+3719455Y+1088550D01*
X+3705437Y+1047583D01*
X+3682659Y+1006616D01*
X+3647859Y+965771D01*
X+3606892Y+934155D01*
X+3565925Y+913608D01*
X+3524958Y+901371D01*
X+3483991Y+896238D01*
X+3473000Y+896000D01*
X+3155500Y+1404000D02*
X+3282500Y+1404000D01*
X+3219000Y+1467500D02*
X+3219000Y+1340500D01*
X+3314250Y+1508140D02*
X+3314250Y+1599580D01*
X+3377750Y+1599580D01*
X+3409500Y+1569100D01*
X+3409500Y+1538620D01*
X+3377750Y+1508140D01*
X+3314250Y+1508140D01*
X+3457125Y+1584340D02*
X+3473000Y+1599580D01*
X+3520625Y+1599580D01*
X+3536500Y+1584340D01*
X+3536500Y+1569100D01*
X+3520625Y+1553860D01*
X+3473000Y+1553860D01*
X+3457125Y+1538620D01*
X+3457125Y+1508140D01*
X+3536500Y+1508140D01*
X+4728000Y-1262000D02*
X+3712000Y-1262000D01*
X+4728000Y-3294000D02*
X+3712000Y-3294000D01*
X+3712000Y-1262000D01*
X+4728000Y-1262000D02*
X+4728000Y-3294000D01*
X+4829600Y-2405000D02*
X+4844840Y-2405000D01*
X+4860080Y-2389125D01*
X+4860080Y-2325625D01*
X+4844840Y-2309750D01*
X+4768640Y-2309750D01*
X+4783880Y-2262125D02*
X+4768640Y-2246250D01*
X+4768640Y-2198625D01*
X+4783880Y-2182750D01*
X+4799120Y-2182750D01*
X+4814360Y-2198625D01*
X+4829600Y-2182750D01*
X+4844840Y-2182750D01*
X+4860080Y-2198625D01*
X+4860080Y-2246250D01*
X+4844840Y-2262125D01*
X+4814360Y-2230375D02*
X+4814360Y-2198625D01*
X+1149000Y+373000D02*
X+1657000Y+373000D01*
X+1657000Y+627000D01*
X+1149000Y+627000D01*
X+1149000Y+373000D01*
X+1276000Y+698120D02*
X+1276000Y+682880D01*
X+1291875Y+667640D01*
X+1355375Y+667640D01*
X+1371250Y+682880D01*
X+1371250Y+759080D01*
X+1498250Y+698120D02*
X+1403000Y+698120D01*
X+1466500Y+759080D01*
X+1466500Y+667640D01*
X+2111000Y+750000D02*
X+2238000Y+750000D01*
X+2238000Y+686500D02*
X+2746000Y+686500D01*
X+2746000Y+813500D01*
X+2238000Y+813500D01*
X+2238000Y+686500D01*
X+2746000Y+750000D02*
X+2873000Y+750000D01*
X+2365000Y+854140D02*
X+2365000Y+945580D01*
X+2444375Y+945580D01*
X+2460250Y+930340D01*
X+2460250Y+915100D01*
X+2444375Y+899860D01*
X+2365000Y+899860D01*
X+2444375Y+899860D02*
X+2460250Y+884620D01*
X+2460250Y+854140D01*
X+2523750Y+899860D02*
X+2507875Y+915100D01*
X+2507875Y+930340D01*
X+2523750Y+945580D01*
X+2571375Y+945580D01*
X+2587250Y+930340D01*
X+2587250Y+915100D01*
X+2571375Y+899860D01*
X+2523750Y+899860D01*
X+2507875Y+884620D01*
X+2507875Y+869380D01*
X+2523750Y+854140D01*
X+2571375Y+854140D01*
X+2587250Y+869380D01*
X+2587250Y+884620D01*
X+2571375Y+899860D01*
X-139000Y+1000000D02*
X-12000Y+1000000D01*
X-12000Y+936500D02*
X+496000Y+936500D01*
X+496000Y+1063500D01*
X-12000Y+1063500D01*
X-12000Y+936500D01*
X+496000Y+1000000D02*
X+623000Y+1000000D01*
X+51500Y+1104140D02*
X+51500Y+1195580D01*
X+130875Y+1195580D01*
X+146750Y+1180340D01*
X+146750Y+1165100D01*
X+130875Y+1149860D01*
X+51500Y+1149860D01*
X+130875Y+1149860D02*
X+146750Y+1134620D01*
X+146750Y+1104140D01*
X+210250Y+1165100D02*
X+242000Y+1195580D01*
X+242000Y+1104140D01*
X+337250Y+1165100D02*
X+369000Y+1195580D01*
X+369000Y+1104140D01*
X-1149000Y-3620000D02*
X-1022000Y-3620000D01*
X-1022000Y-3683500D02*
X-514000Y-3683500D01*
X-514000Y-3556500D01*
X-1022000Y-3556500D01*
X-1022000Y-3683500D01*
X-514000Y-3620000D02*
X-387000Y-3620000D01*
X-895000Y-3515860D02*
X-895000Y-3424420D01*
X-815625Y-3424420D01*
X-799750Y-3439660D01*
X-799750Y-3454900D01*
X-815625Y-3470140D01*
X-895000Y-3470140D01*
X-815625Y-3470140D02*
X-799750Y-3485380D01*
X-799750Y-3515860D01*
X-672750Y-3454900D02*
X-688625Y-3470140D01*
X-736250Y-3470140D01*
X-752125Y-3454900D01*
X-752125Y-3439660D01*
X-736250Y-3424420D01*
X-688625Y-3424420D01*
X-672750Y-3439660D01*
X-672750Y-3500620D01*
X-688625Y-3515860D01*
X-736250Y-3515860D01*
X+1330000Y-2881000D02*
X+1330000Y-3008000D01*
X+1266500Y-3516000D02*
X+1393500Y-3516000D01*
X+1393500Y-3008000D01*
X+1266500Y-3008000D01*
X+1266500Y-3516000D01*
X+1330000Y-3516000D02*
X+1330000Y-3643000D01*
X+1525580Y-3452500D02*
X+1434140Y-3452500D01*
X+1434140Y-3373125D01*
X+1449380Y-3357250D01*
X+1464620Y-3357250D01*
X+1479860Y-3373125D01*
X+1479860Y-3452500D01*
X+1479860Y-3373125D02*
X+1495100Y-3357250D01*
X+1525580Y-3357250D01*
X+1464620Y-3293750D02*
X+1434140Y-3262000D01*
X+1525580Y-3262000D01*
X+1510340Y-3198500D02*
X+1449380Y-3198500D01*
X+1434140Y-3182625D01*
X+1434140Y-3119125D01*
X+1449380Y-3103250D01*
X+1510340Y-3103250D01*
X+1525580Y-3119125D01*
X+1525580Y-3182625D01*
X+1510340Y-3198500D01*
X+1525580Y-3198500D02*
X+1434140Y-3103250D01*
X+153000Y-3084000D02*
X+153000Y-2957000D01*
X+661000Y-2957000D01*
X+661000Y-3465000D01*
X+153000Y-3465000D01*
X+153000Y-3338000D01*
X+280000Y-3211000D02*
X+277564Y-3185124D01*
X+270515Y-3161152D01*
X+259238Y-3139562D01*
X+244122Y-3120830D01*
X+225554Y-3105431D01*
X+203919Y-3093842D01*
X+179606Y-3086540D01*
X+153000Y-3084000D01*
X+280000Y-3211000D02*
X+277564Y-3237606D01*
X+270515Y-3261919D01*
X+259238Y-3283554D01*
X+244122Y-3302122D01*
X+225554Y-3317238D01*
X+203919Y-3328515D01*
X+179606Y-3335564D01*
X+153000Y-3338000D01*
X+20920Y-3356000D02*
X+97120Y-3356000D01*
X+112360Y-3340125D01*
X+112360Y-3276625D01*
X+97120Y-3260750D01*
X+20920Y-3260750D01*
X+36160Y-3213125D02*
X+20920Y-3197250D01*
X+20920Y-3149625D01*
X+36160Y-3133750D01*
X+51400Y-3133750D01*
X+66640Y-3149625D01*
X+81880Y-3133750D01*
X+97120Y-3133750D01*
X+112360Y-3149625D01*
X+112360Y-3197250D01*
X+97120Y-3213125D01*
X+66640Y-3181375D02*
X+66640Y-3149625D01*
X-2417000Y+373000D02*
X+1139000Y+373000D01*
X+1139000Y+627000D01*
X-2417000Y+627000D01*
X-2417000Y+373000D01*
X+885000Y+373000D02*
X+885000Y+627000D01*
X-893000Y+332360D02*
X-893000Y+240920D01*
X-797750Y+240920D01*
X-670750Y+256160D02*
X-686625Y+240920D01*
X-734250Y+240920D01*
X-766000Y+271400D01*
X-766000Y+301880D01*
X-734250Y+332360D01*
X-686625Y+332360D01*
X-670750Y+317120D01*
X-639000Y+240920D02*
X-639000Y+332360D01*
X-575500Y+332360D01*
X-543750Y+301880D01*
X-543750Y+271400D01*
X-575500Y+240920D01*
X-639000Y+240920D01*
X-480250Y+301880D02*
X-448500Y+332360D01*
X-448500Y+240920D01*
M02*
