G04 PROTEUS GERBER X2 FILE*
%TF.GenerationSoftware,Labcenter,Proteus,8.6-SP2-Build23525*%
%TF.CreationDate,2017-11-29T10:51:07+00:00*%
%TF.FileFunction,Copper,L4,Bot*%
%TF.FilePolarity,Positive*%
%TF.Part,Single*%
%FSLAX45Y45*%
%MOMM*%
G01*
%TA.AperFunction,Conductor*%
%ADD12C,0.635000*%
%ADD10C,1.524000*%
%ADD28C,2.286000*%
%ADD29C,2.032000*%
%ADD72C,1.270000*%
%ADD13C,1.016000*%
%ADD11C,0.762000*%
%TA.AperFunction,ViaPad*%
%ADD14C,1.778000*%
%ADD15C,1.524000*%
%TA.AperFunction,ComponentPad*%
%ADD16R,1.270000X1.270000*%
%ADD17C,1.270000*%
%TA.AperFunction,ComponentPad*%
%ADD18C,3.556000*%
%TA.AperFunction,ComponentPad*%
%ADD19C,2.286000*%
%ADD70C,2.540000*%
%ADD71C,2.032000*%
%TA.AperFunction,ComponentPad*%
%ADD20R,1.905000X1.905000*%
%TA.AperFunction,ComponentPad*%
%ADD21C,1.524000*%
%ADD22C,1.778000*%
%ADD23R,2.032000X2.032000*%
%AMDIL016*
4,1,8,
-0.762000,0.965200,-0.457200,1.270000,0.457200,1.270000,0.762000,0.965200,0.762000,-0.965200,
0.457200,-1.270000,-0.457200,-1.270000,-0.762000,-0.965200,-0.762000,0.965200,
0*%
%TA.AperFunction,ComponentPad*%
%ADD24DIL016*%
%AMDIL017*
4,1,8,
-1.270000,0.457200,-0.965200,0.762000,0.965200,0.762000,1.270000,0.457200,1.270000,-0.457200,
0.965200,-0.762000,-0.965200,-0.762000,-1.270000,-0.457200,-1.270000,0.457200,
0*%
%ADD25DIL017*%
%ADD73R,2.540000X2.540000*%
%TA.AperFunction,OtherPad,Unknown*%
%ADD26C,4.500000*%
%TA.AperFunction,Profile*%
%ADD27C,0.203200*%
%TA.AperFunction,NonConductor*%
%ADD30C,0.063500*%
%TD.AperFunction*%
D12*
X-1300000Y-2400000D02*
X-1300000Y-2095500D01*
X-1218000Y-2095500D01*
X-1218000Y-2000000D01*
X-792000Y-2400000D02*
X-964000Y-2228000D01*
X-964000Y-2000000D01*
X-3750000Y-2670000D02*
X-4012000Y-2408000D01*
X-4012000Y-2000000D01*
X-3750000Y-2670000D02*
X-3556000Y-2670000D01*
X-3536000Y-2690000D01*
X-3100000Y-2690000D01*
X-2370000Y-2690000D01*
X-4780000Y-3720000D02*
X-4595850Y-3535850D01*
X-4595850Y-2510150D01*
X-4630000Y-2476000D01*
X-4780000Y-3720000D02*
X-4127500Y-3720000D01*
X-4093500Y-3686000D01*
X-3750000Y-3686000D01*
X-4780000Y-3720000D02*
X-4800000Y-3700000D01*
X-5300000Y-3700000D01*
D10*
X-5900000Y-2730500D02*
X-5900000Y-2609000D01*
X-6350000Y-2159000D01*
X-5900000Y-2730500D02*
X-5842000Y-2730500D01*
X-5795500Y-2684000D01*
X-5300000Y-2684000D01*
X-5900000Y-2730500D02*
X-5900000Y-2900000D01*
D28*
X-7747000Y-381000D02*
X-7750000Y-378000D01*
X-7750000Y+200000D01*
D29*
X-7747000Y-2413000D02*
X-7493000Y-2159000D01*
X-6858000Y-2159000D01*
X-7747000Y-2921000D02*
X-7493000Y-2921000D01*
X-7422000Y-2850000D01*
X-6650000Y-2850000D01*
D12*
X+2100000Y-2009999D02*
X+2100000Y-2010000D01*
D72*
X-6734000Y+200000D02*
X-6734000Y-508000D01*
X-6500000Y-742000D01*
X-6266000Y-508000D01*
X-5588000Y-508000D01*
D12*
X+4508500Y-127000D02*
X+4560000Y-75500D01*
X+4560000Y+90000D01*
D13*
X-5750000Y-2000000D02*
X-5972000Y-1778000D01*
X-6350000Y-1778000D01*
X-6500000Y-1250000D02*
X-6500000Y-1628000D01*
X-6350000Y-1778000D01*
X-1980000Y-476000D02*
X-1981200Y-474800D01*
X-1981200Y-304800D01*
X-2032000Y-254000D01*
X+3048000Y-1460500D02*
X+3302000Y-1206500D01*
X+3302000Y-825500D01*
X+3175000Y-698500D01*
X+3175000Y-381000D01*
X+1333500Y-2222500D02*
X+1714500Y-2222500D01*
X+1778000Y-2159000D01*
X+2365000Y-2944500D02*
X+3000000Y-2944500D01*
X-5900000Y-3100000D02*
X-5176000Y-3100000D01*
X-4780000Y-2704000D01*
X-6604000Y-2159000D02*
X-6604000Y-2349500D01*
X-6413500Y-2540000D01*
X-6413500Y-3036500D01*
X-8001000Y+635000D02*
X-7874000Y+635000D01*
X-7728600Y+780400D01*
X-7728600Y+1000000D01*
D29*
X-6650000Y-3358000D02*
X-7048500Y-3358000D01*
X-7119500Y-3429000D01*
X-7747000Y-3429000D01*
D13*
X-6650000Y-3104000D02*
X-6646000Y-3100000D01*
X-6413500Y-3100000D01*
X-6413500Y-3036500D01*
X-5900000Y-3100000D02*
X-6350000Y-3100000D01*
X-6413500Y-3036500D01*
X-7747000Y-889000D02*
X-7747000Y-1397000D01*
X-6650000Y-3358000D02*
X-6650000Y-3104000D01*
D12*
X-5030000Y-2040000D02*
X-4635500Y-2040000D01*
X-4595500Y-2000000D01*
X-4266000Y-2000000D01*
X-5207000Y-1905000D02*
X-5302000Y-2000000D01*
X-5496000Y-2000000D01*
X-5030000Y-2040000D02*
X-5165000Y-1905000D01*
X-5207000Y-1905000D01*
X-3937000Y-127000D02*
X-3937000Y-401000D01*
X-4012000Y-476000D01*
D13*
X-2234000Y-476000D02*
X-2235200Y-474800D01*
X-2235200Y-304800D01*
X-2286000Y-254000D01*
X-266000Y+1000000D02*
X+254000Y+1000000D01*
X+555500Y+698500D01*
X+758000Y+698500D01*
X+758000Y+500000D01*
X-4699000Y-889000D02*
X-4699000Y-1016000D01*
X-4630000Y-1085000D01*
X-4630000Y-1460000D01*
X-6900000Y+1100000D02*
X-6731000Y+1100000D01*
X-6631000Y+1200000D01*
X-6250000Y+1200000D01*
X-4699000Y-889000D02*
X-4834000Y-1024000D01*
X-5030000Y-1024000D01*
X-6250000Y+1200000D02*
X-5216000Y+1200000D01*
X-4699000Y-127000D02*
X-4699000Y-889000D01*
D10*
X+3400000Y-2170000D02*
X+3400000Y-2764918D01*
X+3421061Y-2785979D01*
X+3433610Y-3748906D02*
X+1351094Y-3748906D01*
X+1330000Y-3770000D01*
D12*
X+1034000Y-330000D02*
X+1034000Y-690000D01*
X+1016000Y-348000D02*
X+1016000Y-350000D01*
X+1032000Y-350000D01*
X+1032000Y-690000D01*
X+1034000Y-690000D01*
X+1014000Y-350000D02*
X+1016000Y-348000D01*
X+1034000Y-330000D01*
X+1331500Y-32500D01*
X+1667500Y-32500D01*
X+1984000Y+284000D01*
X+1984000Y+750000D01*
D11*
X+1530000Y+500000D02*
X+1799479Y+500000D01*
X+1807211Y+507732D01*
D13*
X-1980000Y-476000D02*
X-1980000Y-510000D01*
D12*
X-3253818Y-1022723D02*
X-3253818Y-458279D01*
X-3245435Y-449896D01*
X-3250000Y-476000D01*
D13*
X-2286000Y-254000D02*
X-2730500Y+190500D01*
X-2874105Y+304844D01*
D12*
X-2290000Y+500000D02*
X-2290000Y+63500D01*
X-2283500Y+70000D01*
X-2038500Y+70000D01*
X-1726000Y-242500D01*
X-1726000Y-476000D01*
D13*
X-2562500Y+1333500D02*
X-2786000Y+1110000D01*
X-5207000Y+730000D02*
X-5207000Y+635000D01*
X-4220000Y+360000D02*
X-4316700Y+360000D01*
X-4431000Y+245700D01*
X-4431000Y-127000D01*
X-4445000Y-127000D01*
D12*
X-3340000Y+1186000D02*
X-3334000Y+1180000D01*
X-3040000Y+1180000D01*
X-3040000Y+1110000D01*
D13*
X-4699000Y-127000D02*
X-4699000Y+124382D01*
X-3553607Y+119847D02*
X-3390153Y+119847D01*
X-3340000Y+170000D01*
D12*
X+0Y+180000D02*
X+0Y+465760D01*
X+23317Y+489077D01*
X-4000Y+500000D01*
X+2100000Y-2010000D02*
X+2355100Y-2009999D01*
X+2444000Y-2098899D01*
X+2444000Y-2170000D01*
X+2384000Y-2170000D01*
D13*
X+1333500Y-2222500D02*
X+1330000Y-2222500D01*
X+1330000Y-2010000D01*
X+1310000Y-2010000D01*
D12*
X+2050000Y-690000D02*
X+2110000Y-690000D01*
X+1328000Y-1472000D01*
X+1328000Y-1750000D01*
X+1310000Y-1750000D01*
X+280000Y-3610000D02*
X+0Y-3610000D01*
X-10000Y-3620000D01*
X-260000Y-3620000D01*
X+1330000Y-2754000D02*
X+952500Y-2754000D01*
X+886500Y-2820000D01*
X+540000Y-2820000D01*
X-1276000Y-3140000D02*
X-1276000Y-3620000D01*
D13*
X-1472000Y-2000000D02*
X-1460000Y-1988000D01*
X-1460000Y-1640000D01*
X-1230000Y-1640000D01*
D12*
X+1140000Y-1200000D02*
X+1118712Y-1431081D01*
X+1140000Y-1440000D01*
X+1040155Y-2546585D02*
X+1579578Y-2546585D01*
X+2103288Y-2536111D02*
X+2328888Y-2536111D01*
X+2365000Y-2500000D01*
D13*
X+3040000Y-104500D02*
X+3040000Y-381000D01*
X+3175000Y-381000D01*
D11*
X+3373832Y+519251D02*
X+3413832Y+519251D01*
X+3413832Y+347982D01*
X+3040000Y-25850D01*
X+3040000Y-104500D01*
D13*
X+2800000Y+1150000D02*
X+2800000Y+750000D01*
X+2836800Y-104499D01*
X-7747000Y-1397000D02*
X-7048500Y-1397000D01*
X-6901500Y-1250000D01*
X-6500000Y-1250000D01*
X-1472000Y-2000000D02*
X-1472000Y-2159000D01*
X-1524000Y-2211000D01*
X-1524000Y-2240000D01*
X-1800000Y-2240000D01*
X-1800000Y-2300000D01*
X-2562500Y+1333500D02*
X-2562500Y+1360000D01*
X+2800000Y+1360000D01*
D10*
X+3619500Y-2169999D02*
X+3400000Y-2170000D01*
D13*
X+3040000Y-104500D02*
X+2836800Y-104499D01*
X+2405000Y-104500D01*
X+2800000Y+1150000D02*
X+2800000Y+1360000D01*
X+1012000Y+230000D02*
X+1012000Y+500000D01*
X+2413000Y-1460500D02*
X+3048000Y-1460499D01*
X+3048000Y-1460500D01*
X+3600000Y+1150000D02*
X+4046000Y+1150001D01*
X+4046000Y+1150000D01*
X-4200000Y+1200000D02*
X-4200000Y+834500D01*
X-4191000Y+825500D01*
X-4191000Y+730000D01*
X-3100000Y-3706000D02*
X-2370000Y-3706000D01*
D12*
X-5207000Y-1905000D02*
X-5270500Y-1905000D01*
X-5270500Y-444500D01*
X-4953000Y-127000D01*
X+2413000Y-1016000D02*
X+3048000Y-1016000D01*
X+1016000Y-348000D02*
X+1016000Y-127000D01*
X+1034000Y-127000D01*
X+1034000Y-330000D01*
X+2413000Y-1016000D02*
X+2054779Y-1016000D01*
X+2033766Y-1037013D01*
X+2033766Y-1024643D01*
D13*
X-2874105Y+304844D02*
X-2890000Y+317500D01*
X-2890000Y+197500D01*
X-3111500Y+197500D01*
X-3139000Y+170000D01*
X-3340000Y+170000D01*
X-4200000Y+1200000D02*
X-4035442Y+1364558D01*
X-2593558Y+1364558D01*
X-2562500Y+1333500D01*
X-4220000Y+360000D02*
X-4177000Y+403000D01*
X-4177000Y+635000D01*
X-4191000Y+635000D01*
X-4191000Y+730000D01*
X-5216000Y+1200000D02*
X-5207000Y+1191000D01*
X-5207000Y+730000D01*
D12*
X+560000Y-476000D02*
X+358189Y-274189D01*
X+29651Y-274189D01*
X+13816Y-258354D01*
X+13816Y-266184D01*
X+10000Y-270000D01*
X+3000000Y-2500000D02*
X+2365000Y-2499999D01*
X+2365000Y-2500000D01*
X-976000Y-1640000D02*
X-964000Y-1652000D01*
X-964000Y-2000000D01*
X-1782000Y+500000D02*
X-1782000Y+313500D01*
X-1659000Y+190500D01*
X-1383191Y+190500D01*
X-1218000Y+25309D01*
X-1218000Y-476000D01*
X-1528000Y+500000D02*
X-1528000Y+317500D01*
X-1129191Y+317500D01*
X-964000Y+152309D01*
X-964000Y-476000D01*
X+3000000Y+750000D02*
X+3173000Y+750000D01*
X+3346000Y+923000D01*
X+3346000Y+1150000D01*
D72*
X-6734000Y+200000D02*
X-7246000Y+200000D01*
X-7500000Y+454000D01*
X-7500000Y+1000000D01*
D12*
X-1472000Y-476000D02*
X-1472000Y-101691D01*
X-1637191Y+63500D01*
X-1803500Y+63500D01*
X-2036000Y+296000D01*
X-2036000Y+500000D01*
X-1300000Y-2400000D02*
X-1307950Y-2407950D01*
X-1544723Y-2407950D01*
X-1587500Y-2450727D01*
X-1587500Y-2511223D01*
X-1630277Y-2554000D01*
X-1800000Y-2554000D01*
X+4560000Y+1106000D02*
X+4560000Y+1273223D01*
X+4499723Y+1333500D01*
X+4300000Y+1333500D01*
X+4300000Y+1150000D01*
X+750000Y+1000000D02*
X+1026000Y+1000000D01*
X+1276000Y+750000D01*
X+1276000Y+500000D01*
D13*
X+2413000Y-1460500D02*
X+1981200Y-1460500D01*
X+1778000Y-1663700D01*
X+1778000Y-2159000D01*
D12*
X-4266000Y-476000D02*
X-4266000Y-339466D01*
X-4244034Y-317500D01*
X-4191000Y-317500D01*
X-4191000Y-127000D01*
D13*
X-1472000Y-2000000D02*
X-1472000Y-1341747D01*
X-1617860Y-1178891D01*
X-1970000Y-1140000D01*
X-1960000Y-840000D01*
X-1980000Y-510000D01*
X-4699000Y-889000D02*
X-3988000Y-1600000D01*
X-1926000Y-1600000D01*
X-1726000Y-1800000D01*
X-1726000Y-2000000D01*
X-5207000Y+730000D02*
X-5414830Y+730000D01*
X-5447000Y+697830D01*
X-5447000Y+474300D01*
X-5332700Y+360000D01*
X-5236000Y+360000D01*
D12*
X+560000Y-2000000D02*
X+825500Y-1734500D01*
X+825500Y-72685D01*
X+672815Y+80000D01*
X+418560Y+80000D01*
X+250000Y+248560D01*
X+250000Y+500000D01*
X-258000Y+500000D02*
X-258000Y+154000D01*
X-4000Y-100000D01*
X+444500Y-100000D01*
X+698500Y-354000D01*
X+698500Y-825500D01*
X+306000Y-1218000D01*
X+306000Y-2000000D01*
D13*
X-4445000Y-127000D02*
X-4445000Y-635000D01*
X-3670000Y-1410000D01*
X-2107000Y-1410000D01*
X-1980000Y-1283000D01*
X-1980000Y-510000D01*
D12*
X-3504000Y-476000D02*
X-3504000Y-1009873D01*
X-3329375Y-1184498D01*
X-2376839Y-1184498D01*
X-2380000Y-1210000D01*
X+2546000Y+1150000D02*
X+2546000Y+762000D01*
X+2650000Y+658000D01*
X+2650000Y+229395D01*
X+2547605Y+127000D01*
X+2249494Y+127000D01*
X+2083599Y-38895D01*
X+2083599Y-296401D01*
X+2030000Y-350000D01*
X+2405000Y+340000D02*
X+2405000Y+875000D01*
X+2073500Y+1206500D01*
X-1714500Y+1206500D01*
X-1985000Y+936000D01*
X-3556000Y+936000D01*
X-3810000Y+682000D01*
X-3810000Y+127000D01*
X-3758000Y+75000D01*
X-3758000Y-476000D01*
D13*
X+1530000Y+500000D02*
X+1530000Y+288800D01*
X+1471200Y+230000D01*
X+1012000Y+230000D01*
X+562800Y+230000D01*
X+504000Y+288800D01*
X+504000Y+500000D01*
X-4200000Y+1200000D02*
X-4397000Y+1397000D01*
X-7993745Y+1397000D01*
X-8146145Y+1244600D01*
X-8146145Y+780145D01*
X-8001000Y+635000D01*
X-6900000Y+1100000D02*
X-7030000Y+1230000D01*
X-7918400Y+1230000D01*
X-7957200Y+1191200D01*
X-7957200Y+1000000D01*
X-266000Y+1000000D02*
X-486000Y+780000D01*
X-2807800Y+780000D01*
X-2860000Y+727800D01*
X-2860000Y+574000D01*
X-2874105Y+304844D01*
X-4780000Y-2704000D02*
X-4999850Y-2704000D01*
X-5016500Y-2687350D01*
X-5016500Y-2363528D01*
X-4875472Y-2222500D01*
X-4522585Y-2222500D01*
X-4318000Y-2427085D01*
X-4318000Y-3111500D01*
X-4064000Y-3365500D01*
X-3244850Y-3365500D01*
X-3100000Y-3510350D01*
X-3100000Y-3706000D01*
X+2365000Y-2944500D02*
X+2116468Y-2944500D01*
X+1905000Y-2733032D01*
X+1905000Y-2222500D01*
X+1841500Y-2222500D01*
X+1778000Y-2159000D01*
X-6604000Y-2159000D02*
X-6604000Y-2070100D01*
X-6502400Y-1968500D01*
X-6398994Y-1968500D01*
X-6350000Y-1919506D01*
X-6350000Y-1778000D01*
X+3600000Y+1150000D02*
X+3600000Y+1349700D01*
X+3552700Y+1397000D01*
X+2800000Y+1397000D01*
X+2800000Y+1360000D01*
X-5207000Y+730000D02*
X-5016500Y+539500D01*
X-4857750Y+539500D01*
X-4699000Y+380750D01*
X-4699000Y+124382D01*
D12*
X+1034000Y-690000D02*
X+970000Y-754000D01*
X+970000Y-1968500D01*
X+716000Y-2222500D01*
X+127000Y-2222500D01*
X-127000Y-2476500D01*
X-127000Y-2836000D01*
X-381000Y-3090000D01*
X-980000Y-3090000D01*
X-1276000Y-3100000D01*
X-1276000Y-3140000D01*
D13*
X-5588000Y-1524000D02*
X-5588000Y-1730552D01*
X-5635448Y-1778000D01*
X-5727952Y-1778000D01*
X-5750000Y-1800048D01*
X-5750000Y-2000000D01*
D12*
X-1276000Y-3140000D02*
X-1800468Y-3140000D01*
X-2032000Y-2908468D01*
X-2032000Y-2581032D01*
X-2263532Y-2349500D01*
X-3154500Y-2349500D01*
X-3504000Y-2000000D01*
D72*
X+3683000Y-2145999D02*
X+3619500Y-2082499D01*
X+3619500Y-2169999D01*
D10*
X+3500000Y-2016000D02*
X+3683000Y-2016000D01*
X+3683000Y-2145999D01*
D72*
X+3683000Y-2159000D02*
X+3683000Y-2145999D01*
D10*
X+3683000Y-2159000D02*
X+3672001Y-2169999D01*
X+3619500Y-2169999D01*
D13*
X+540000Y-3610000D02*
X+540000Y-3460000D01*
X+380000Y-3300000D01*
X+172304Y-3300000D01*
X+20000Y-3147696D01*
X+20000Y-2680952D01*
X+166219Y-2505496D01*
X+960000Y-2360000D01*
X+1206500Y-2349500D01*
X+1333500Y-2222500D01*
X+280000Y-2820000D02*
X+280000Y-2960000D01*
X+270000Y-2990000D01*
X+557042Y-3201904D01*
X+3554505Y-3201904D01*
X+4220000Y-2536409D01*
X+4220000Y-2532000D01*
X+4220000Y-1516000D02*
X+4157000Y-1516000D01*
X+3923000Y-1750000D01*
X+2100000Y-1750000D01*
X-5588000Y-1524000D02*
X-5397500Y-1333500D01*
X-5397500Y-317500D01*
X-6350000Y+130000D01*
X-6390000Y+900000D01*
X-6250000Y+1000000D01*
X-6900000Y+900000D02*
X-6390000Y+900000D01*
X-6350000Y+900000D01*
X-6250000Y+1000000D01*
X-7747000Y-889000D02*
X-8070000Y-566000D01*
X-8070000Y+566000D01*
X-8001000Y+635000D01*
D12*
X+4508500Y-127000D02*
X+4650000Y-268500D01*
X+4650000Y-3020000D01*
X+4290000Y-3380000D01*
X+1255500Y-3380000D01*
X+735500Y-3900000D01*
X-1905000Y-3900000D01*
X-2159000Y-3646000D01*
X-2159000Y-2667000D01*
X-2349500Y-2476500D01*
X-3281500Y-2476500D01*
X-3758000Y-2000000D01*
D11*
X+4220000Y-3040000D02*
X+4510000Y-2750000D01*
X+4510000Y-2460533D01*
X+4327467Y-2278000D01*
X+3799001Y-2278000D01*
X+3683000Y-2161999D01*
X+3683000Y-2159000D01*
D13*
X+3175000Y-381000D02*
X+3238500Y-381000D01*
X+3238500Y-310000D01*
X+3950000Y-310000D01*
D12*
X+3500000Y-1000000D02*
X+3500000Y-1204042D01*
X+3629458Y-1333500D01*
X+3950000Y-1333500D01*
X+3950000Y-1100000D01*
D72*
X+4220000Y-2024000D02*
X+4510000Y-1734000D01*
X+4510000Y-1194000D01*
X+4416000Y-1100000D01*
X+4210000Y-1100000D01*
D12*
X+4508500Y-127000D02*
X+4508500Y+0D01*
X+4350000Y+0D01*
X+4210000Y-310000D02*
X+4199250Y-310000D01*
X+4199250Y-127000D01*
X+4072250Y+0D01*
X+3334000Y+0D01*
D14*
X+3421061Y-2785979D03*
X+3433610Y-3748906D03*
X+1807211Y+507732D03*
X+3373832Y+519251D03*
X-3253818Y-1022723D03*
X-3553607Y+119847D03*
D15*
X+0Y+180000D03*
D14*
X+1140000Y-1200000D03*
X+1140000Y-1440000D03*
X+1040155Y-2546585D03*
X+1579578Y-2546585D03*
X+2103288Y-2536111D03*
X+2033766Y-1024643D03*
D15*
X+10000Y-270000D03*
D14*
X-2380000Y-1210000D03*
X-4699000Y+124382D03*
D16*
X-4266000Y-2000000D03*
D17*
X-4012000Y-2000000D03*
X-3758000Y-2000000D03*
X-3504000Y-2000000D03*
X-3250000Y-2000000D03*
X-2996000Y-2000000D03*
X-2742000Y-2000000D03*
X-2488000Y-2000000D03*
X-2234000Y-2000000D03*
X-1980000Y-2000000D03*
X-1726000Y-2000000D03*
X-1472000Y-2000000D03*
X-1218000Y-2000000D03*
X-964000Y-2000000D03*
X-710000Y-2000000D03*
X-456000Y-2000000D03*
X-202000Y-2000000D03*
X+52000Y-2000000D03*
X+306000Y-2000000D03*
X+560000Y-2000000D03*
X+560000Y-476000D03*
X+306000Y-476000D03*
X+52000Y-476000D03*
X-202000Y-476000D03*
X-456000Y-476000D03*
X-710000Y-476000D03*
X-964000Y-476000D03*
X-1218000Y-476000D03*
X-1472000Y-476000D03*
X-1726000Y-476000D03*
X-1980000Y-476000D03*
X-2234000Y-476000D03*
X-2488000Y-476000D03*
X-2742000Y-476000D03*
X-2996000Y-476000D03*
X-3250000Y-476000D03*
X-3504000Y-476000D03*
X-3758000Y-476000D03*
X-4012000Y-476000D03*
D16*
X-4266000Y-476000D03*
D18*
X-7747000Y-381000D03*
X-7747000Y-889000D03*
X-7747000Y-1397000D03*
D19*
X-7750000Y+200000D03*
X-6734000Y+200000D03*
D70*
X-6500000Y-742000D03*
X-6500000Y-1250000D03*
D71*
X-5588000Y-508000D03*
X-5588000Y-1524000D03*
D20*
X-7500000Y+1000000D03*
X-7728600Y+1000000D03*
X-7957200Y+1000000D03*
D21*
X-6900000Y+1100000D03*
X-6900000Y+900000D03*
X-6250000Y+1200000D03*
X-6250000Y+1000000D03*
D71*
X-5216000Y+1200000D03*
X-4200000Y+1200000D03*
X-5207000Y+730000D03*
X-4191000Y+730000D03*
D19*
X-4220000Y+360000D03*
X-5236000Y+360000D03*
D22*
X-3340000Y+1186000D03*
X-3340000Y+170000D03*
D23*
X-3040000Y+1110000D03*
X-2786000Y+1110000D03*
D24*
X+4210000Y-310000D03*
X+3950000Y-310000D03*
X+3950000Y-1100000D03*
X+4210000Y-1100000D03*
D22*
X+4560000Y+90000D03*
X+4560000Y+1106000D03*
X+4350000Y+0D03*
X+3334000Y+0D03*
X+3500000Y-1000000D03*
X+3500000Y-2016000D03*
D23*
X+4300000Y+1150000D03*
X+4046000Y+1150000D03*
D25*
X+1310000Y-1750000D03*
X+1310000Y-2010000D03*
X+2100000Y-2010000D03*
X+2100000Y-1750000D03*
D22*
X+2384000Y-2170000D03*
X+3400000Y-2170000D03*
X+1014000Y-350000D03*
X+2030000Y-350000D03*
X+1034000Y-690000D03*
X+2050000Y-690000D03*
D23*
X+2546000Y+1150000D03*
X+2800000Y+1150000D03*
D18*
X-7747000Y-2413000D03*
X-7747000Y-2921000D03*
X-7747000Y-3429000D03*
D71*
X-6858000Y-2159000D03*
X-6604000Y-2159000D03*
X-6350000Y-2159000D03*
X-6650000Y-3358000D03*
X-6650000Y-3104000D03*
X-6650000Y-2850000D03*
D21*
X-5900000Y-2900000D03*
X-5900000Y-3100000D03*
D22*
X-5300000Y-2684000D03*
X-5300000Y-3700000D03*
D19*
X-4780000Y-2704000D03*
X-4780000Y-3720000D03*
X-4630000Y-2476000D03*
X-4630000Y-1460000D03*
X-3750000Y-3686000D03*
X-3750000Y-2670000D03*
D71*
X-3100000Y-2690000D03*
X-3100000Y-3706000D03*
D22*
X-2370000Y-2690000D03*
X-2370000Y-3706000D03*
X-5030000Y-1024000D03*
X-5030000Y-2040000D03*
X-5750000Y-2000000D03*
X-5496000Y-2000000D03*
D23*
X-4953000Y-127000D03*
X-4699000Y-127000D03*
X-4445000Y-127000D03*
X-4191000Y-127000D03*
X-3937000Y-127000D03*
D71*
X-1300000Y-2400000D03*
X-792000Y-2400000D03*
D22*
X-1800000Y-2554000D03*
X-1800000Y-2300000D03*
X-2032000Y-254000D03*
X-2286000Y-254000D03*
D73*
X+2365000Y-2944500D03*
X+3000000Y-2944500D03*
X+2365000Y-2500000D03*
X+3000000Y-2500000D03*
X+2405000Y-104500D03*
X+3040000Y-104500D03*
X+2405000Y+340000D03*
X+3040000Y+340000D03*
X+2413000Y-1460500D03*
X+3048000Y-1460500D03*
X+2413000Y-1016000D03*
X+3048000Y-1016000D03*
D22*
X-976000Y-1640000D03*
X-1230000Y-1640000D03*
D23*
X+3346000Y+1150000D03*
X+3600000Y+1150000D03*
D18*
X+4220000Y-1516000D03*
X+4220000Y-2024000D03*
X+4220000Y-2532000D03*
X+4220000Y-3040000D03*
D23*
X+1276000Y+500000D03*
X+1530000Y+500000D03*
D22*
X+1984000Y+750000D03*
X+3000000Y+750000D03*
X-266000Y+1000000D03*
X+750000Y+1000000D03*
X-1276000Y-3620000D03*
X-260000Y-3620000D03*
X+1330000Y-2754000D03*
X+1330000Y-3770000D03*
D24*
X+280000Y-3610000D03*
X+540000Y-3610000D03*
X+540000Y-2820000D03*
X+280000Y-2820000D03*
D23*
X+1012000Y+500000D03*
X+758000Y+500000D03*
X+504000Y+500000D03*
X+250000Y+500000D03*
X-4000Y+500000D03*
X-258000Y+500000D03*
X-512000Y+500000D03*
X-766000Y+500000D03*
X-1020000Y+500000D03*
X-1274000Y+500000D03*
X-1528000Y+500000D03*
X-1782000Y+500000D03*
X-2036000Y+500000D03*
X-2290000Y+500000D03*
D26*
X+4000000Y-3710000D03*
X-6030000Y-3670000D03*
X-5990000Y+480000D03*
X+4010000Y+530000D03*
D27*
X-8250000Y-4000000D02*
X+4750000Y-4000000D01*
X+4750000Y+1500000D01*
X-8250000Y+1500000D01*
X-8250000Y-4000000D01*
D30*
X-1537128Y-860980D02*
X-1486328Y-860980D01*
X-1410128Y-860980D02*
X-1359328Y-860980D01*
X-1323768Y-860980D02*
X-1272968Y-860980D01*
X-1212008Y-860980D02*
X-1161208Y-860980D01*
X-1029128Y-860980D02*
X-983408Y-860980D01*
X-958008Y-860980D02*
X-917368Y-860980D01*
X-902128Y-860980D02*
X-866568Y-860980D01*
X-825928Y-860980D02*
X-780208Y-860980D01*
X-764968Y-860980D02*
X-724328Y-860980D01*
X-698928Y-860980D02*
X-643048Y-860980D01*
X-607488Y-860980D02*
X-556688Y-860980D01*
X-1552368Y-855900D02*
X-1471088Y-855900D01*
X-1410128Y-855900D02*
X-1359328Y-855900D01*
X-1323768Y-855900D02*
X-1272968Y-855900D01*
X-1212008Y-855900D02*
X-1161208Y-855900D01*
X-1029128Y-855900D02*
X-983408Y-855900D01*
X-958008Y-855900D02*
X-917368Y-855900D01*
X-912288Y-855900D02*
X-856408Y-855900D01*
X-820848Y-855900D02*
X-780208Y-855900D01*
X-775128Y-855900D02*
X-714168Y-855900D01*
X-693848Y-855900D02*
X-637968Y-855900D01*
X-607488Y-855900D02*
X-556688Y-855900D01*
X-1557448Y-850820D02*
X-1466008Y-850820D01*
X-1410128Y-850820D02*
X-1359328Y-850820D01*
X-1323768Y-850820D02*
X-1272968Y-850820D01*
X-1212008Y-850820D02*
X-1161208Y-850820D01*
X-1029128Y-850820D02*
X-983408Y-850820D01*
X-958008Y-850820D02*
X-851328Y-850820D01*
X-820848Y-850820D02*
X-709088Y-850820D01*
X-693848Y-850820D02*
X-637968Y-850820D01*
X-607488Y-850820D02*
X-556688Y-850820D01*
X-1562528Y-845740D02*
X-1460928Y-845740D01*
X-1410128Y-845740D02*
X-1359328Y-845740D01*
X-1323768Y-845740D02*
X-1272968Y-845740D01*
X-1212008Y-845740D02*
X-1161208Y-845740D01*
X-1029128Y-845740D02*
X-983408Y-845740D01*
X-958008Y-845740D02*
X-851328Y-845740D01*
X-820848Y-845740D02*
X-704008Y-845740D01*
X-688768Y-845740D02*
X-637968Y-845740D01*
X-607488Y-845740D02*
X-556688Y-845740D01*
X-1567608Y-840660D02*
X-1455848Y-840660D01*
X-1410128Y-840660D02*
X-1359328Y-840660D01*
X-1323768Y-840660D02*
X-1272968Y-840660D01*
X-1212008Y-840660D02*
X-1161208Y-840660D01*
X-1029128Y-840660D02*
X-983408Y-840660D01*
X-958008Y-840660D02*
X-846248Y-840660D01*
X-820848Y-840660D02*
X-704008Y-840660D01*
X-688768Y-840660D02*
X-632888Y-840660D01*
X-607488Y-840660D02*
X-556688Y-840660D01*
X-1572688Y-835580D02*
X-1450768Y-835580D01*
X-1410128Y-835580D02*
X-1359328Y-835580D01*
X-1323768Y-835580D02*
X-1272968Y-835580D01*
X-1212008Y-835580D02*
X-1161208Y-835580D01*
X-1029128Y-835580D02*
X-983408Y-835580D01*
X-958008Y-835580D02*
X-846248Y-835580D01*
X-820848Y-835580D02*
X-764968Y-835580D01*
X-754808Y-835580D02*
X-704008Y-835580D01*
X-688768Y-835580D02*
X-632888Y-835580D01*
X-607488Y-835580D02*
X-556688Y-835580D01*
X-1572688Y-830500D02*
X-1516808Y-830500D01*
X-1501568Y-830500D02*
X-1450768Y-830500D01*
X-1410128Y-830500D02*
X-1359328Y-830500D01*
X-1323768Y-830500D02*
X-1272968Y-830500D01*
X-1212008Y-830500D02*
X-1161208Y-830500D01*
X-1029128Y-830500D02*
X-983408Y-830500D01*
X-958008Y-830500D02*
X-907208Y-830500D01*
X-897048Y-830500D02*
X-846248Y-830500D01*
X-820848Y-830500D02*
X-770048Y-830500D01*
X-749728Y-830500D02*
X-704008Y-830500D01*
X-683688Y-830500D02*
X-627808Y-830500D01*
X-607488Y-830500D02*
X-556688Y-830500D01*
X-1572688Y-825420D02*
X-1521888Y-825420D01*
X-1496488Y-825420D02*
X-1445688Y-825420D01*
X-1410128Y-825420D02*
X-1359328Y-825420D01*
X-1323768Y-825420D02*
X-1272968Y-825420D01*
X-1212008Y-825420D02*
X-1161208Y-825420D01*
X-1029128Y-825420D02*
X-983408Y-825420D01*
X-958008Y-825420D02*
X-907208Y-825420D01*
X-891968Y-825420D02*
X-846248Y-825420D01*
X-820848Y-825420D02*
X-775128Y-825420D01*
X-749728Y-825420D02*
X-704008Y-825420D01*
X-683688Y-825420D02*
X-627808Y-825420D01*
X-607488Y-825420D02*
X-556688Y-825420D01*
X-1577768Y-820340D02*
X-1521888Y-820340D01*
X-1496488Y-820340D02*
X-1445688Y-820340D01*
X-1410128Y-820340D02*
X-1359328Y-820340D01*
X-1323768Y-820340D02*
X-1272968Y-820340D01*
X-1212008Y-820340D02*
X-1161208Y-820340D01*
X-1029128Y-820340D02*
X-983408Y-820340D01*
X-958008Y-820340D02*
X-912288Y-820340D01*
X-891968Y-820340D02*
X-846248Y-820340D01*
X-820848Y-820340D02*
X-775128Y-820340D01*
X-754808Y-820340D02*
X-709088Y-820340D01*
X-678608Y-820340D02*
X-622728Y-820340D01*
X-607488Y-820340D02*
X-556688Y-820340D01*
X-1577768Y-815260D02*
X-1521888Y-815260D01*
X-1491408Y-815260D02*
X-1440608Y-815260D01*
X-1410128Y-815260D02*
X-1359328Y-815260D01*
X-1323768Y-815260D02*
X-1272968Y-815260D01*
X-1212008Y-815260D02*
X-1161208Y-815260D01*
X-1029128Y-815260D02*
X-983408Y-815260D01*
X-958008Y-815260D02*
X-912288Y-815260D01*
X-891968Y-815260D02*
X-846248Y-815260D01*
X-820848Y-815260D02*
X-775128Y-815260D01*
X-770048Y-815260D02*
X-709088Y-815260D01*
X-673528Y-815260D02*
X-622728Y-815260D01*
X-607488Y-815260D02*
X-556688Y-815260D01*
X-1557448Y-810180D02*
X-1526968Y-810180D01*
X-1491408Y-810180D02*
X-1440608Y-810180D01*
X-1410128Y-810180D02*
X-1359328Y-810180D01*
X-1323768Y-810180D02*
X-1272968Y-810180D01*
X-1212008Y-810180D02*
X-1161208Y-810180D01*
X-1029128Y-810180D02*
X-983408Y-810180D01*
X-958008Y-810180D02*
X-912288Y-810180D01*
X-891968Y-810180D02*
X-846248Y-810180D01*
X-820848Y-810180D02*
X-714168Y-810180D01*
X-673528Y-810180D02*
X-617648Y-810180D01*
X-607488Y-810180D02*
X-556688Y-810180D01*
X-1542208Y-805100D02*
X-1526968Y-805100D01*
X-1491408Y-805100D02*
X-1440608Y-805100D01*
X-1410128Y-805100D02*
X-1272968Y-805100D01*
X-1212008Y-805100D02*
X-1161208Y-805100D01*
X-1029128Y-805100D02*
X-983408Y-805100D01*
X-958008Y-805100D02*
X-912288Y-805100D01*
X-891968Y-805100D02*
X-846248Y-805100D01*
X-820848Y-805100D02*
X-729408Y-805100D01*
X-663368Y-805100D02*
X-556688Y-805100D01*
X-1491408Y-800020D02*
X-1440608Y-800020D01*
X-1410128Y-800020D02*
X-1272968Y-800020D01*
X-1212008Y-800020D02*
X-1161208Y-800020D01*
X-1029128Y-800020D02*
X-983408Y-800020D01*
X-958008Y-800020D02*
X-912288Y-800020D01*
X-891968Y-800020D02*
X-846248Y-800020D01*
X-820848Y-800020D02*
X-749728Y-800020D01*
X-663368Y-800020D02*
X-556688Y-800020D01*
X-1491408Y-794940D02*
X-1440608Y-794940D01*
X-1410128Y-794940D02*
X-1272968Y-794940D01*
X-1212008Y-794940D02*
X-1161208Y-794940D01*
X-1029128Y-794940D02*
X-983408Y-794940D01*
X-958008Y-794940D02*
X-912288Y-794940D01*
X-891968Y-794940D02*
X-846248Y-794940D01*
X-820848Y-794940D02*
X-770048Y-794940D01*
X-673528Y-794940D02*
X-556688Y-794940D01*
X-1491408Y-789860D02*
X-1440608Y-789860D01*
X-1410128Y-789860D02*
X-1272968Y-789860D01*
X-1212008Y-789860D02*
X-1161208Y-789860D01*
X-1029128Y-789860D02*
X-983408Y-789860D01*
X-958008Y-789860D02*
X-912288Y-789860D01*
X-891968Y-789860D02*
X-846248Y-789860D01*
X-820848Y-789860D02*
X-775128Y-789860D01*
X-754808Y-789860D02*
X-729408Y-789860D01*
X-678608Y-789860D02*
X-556688Y-789860D01*
X-1491408Y-784780D02*
X-1440608Y-784780D01*
X-1410128Y-784780D02*
X-1272968Y-784780D01*
X-1212008Y-784780D02*
X-1161208Y-784780D01*
X-1029128Y-784780D02*
X-983408Y-784780D01*
X-958008Y-784780D02*
X-912288Y-784780D01*
X-891968Y-784780D02*
X-846248Y-784780D01*
X-820848Y-784780D02*
X-775128Y-784780D01*
X-759888Y-784780D02*
X-709088Y-784780D01*
X-683688Y-784780D02*
X-556688Y-784780D01*
X-1491408Y-779700D02*
X-1440608Y-779700D01*
X-1410128Y-779700D02*
X-1272968Y-779700D01*
X-1212008Y-779700D02*
X-1161208Y-779700D01*
X-1029128Y-779700D02*
X-983408Y-779700D01*
X-958008Y-779700D02*
X-912288Y-779700D01*
X-891968Y-779700D02*
X-846248Y-779700D01*
X-815768Y-779700D02*
X-709088Y-779700D01*
X-683688Y-779700D02*
X-556688Y-779700D01*
X-1491408Y-774620D02*
X-1440608Y-774620D01*
X-1410128Y-774620D02*
X-1272968Y-774620D01*
X-1212008Y-774620D02*
X-1161208Y-774620D01*
X-1029128Y-774620D02*
X-983408Y-774620D01*
X-958008Y-774620D02*
X-912288Y-774620D01*
X-891968Y-774620D02*
X-846248Y-774620D01*
X-815768Y-774620D02*
X-714168Y-774620D01*
X-688768Y-774620D02*
X-632888Y-774620D01*
X-607488Y-774620D02*
X-556688Y-774620D01*
X-1547288Y-769540D02*
X-1526968Y-769540D01*
X-1491408Y-769540D02*
X-1440608Y-769540D01*
X-1410128Y-769540D02*
X-1359328Y-769540D01*
X-1323768Y-769540D02*
X-1272968Y-769540D01*
X-1212008Y-769540D02*
X-1161208Y-769540D01*
X-1029128Y-769540D02*
X-983408Y-769540D01*
X-958008Y-769540D02*
X-912288Y-769540D01*
X-891968Y-769540D02*
X-846248Y-769540D01*
X-810688Y-769540D02*
X-719248Y-769540D01*
X-688768Y-769540D02*
X-637968Y-769540D01*
X-607488Y-769540D02*
X-556688Y-769540D01*
X-1572688Y-764460D02*
X-1526968Y-764460D01*
X-1496488Y-764460D02*
X-1445688Y-764460D01*
X-1410128Y-764460D02*
X-1359328Y-764460D01*
X-1323768Y-764460D02*
X-1272968Y-764460D01*
X-1212008Y-764460D02*
X-1161208Y-764460D01*
X-1029128Y-764460D02*
X-983408Y-764460D01*
X-958008Y-764460D02*
X-912288Y-764460D01*
X-891968Y-764460D02*
X-846248Y-764460D01*
X-805608Y-764460D02*
X-724328Y-764460D01*
X-688768Y-764460D02*
X-637968Y-764460D01*
X-607488Y-764460D02*
X-556688Y-764460D01*
X-1577768Y-759380D02*
X-1521888Y-759380D01*
X-1496488Y-759380D02*
X-1445688Y-759380D01*
X-1410128Y-759380D02*
X-1359328Y-759380D01*
X-1323768Y-759380D02*
X-1272968Y-759380D01*
X-1212008Y-759380D02*
X-1161208Y-759380D01*
X-1029128Y-759380D02*
X-983408Y-759380D01*
X-958008Y-759380D02*
X-912288Y-759380D01*
X-891968Y-759380D02*
X-846248Y-759380D01*
X-795448Y-759380D02*
X-734488Y-759380D01*
X-688768Y-759380D02*
X-637968Y-759380D01*
X-607488Y-759380D02*
X-556688Y-759380D01*
X-1572688Y-754300D02*
X-1516808Y-754300D01*
X-1501568Y-754300D02*
X-1450768Y-754300D01*
X-1410128Y-754300D02*
X-1359328Y-754300D01*
X-1323768Y-754300D02*
X-1272968Y-754300D01*
X-1212008Y-754300D02*
X-1161208Y-754300D01*
X-1029128Y-754300D02*
X-983408Y-754300D01*
X-688768Y-754300D02*
X-632888Y-754300D01*
X-607488Y-754300D02*
X-556688Y-754300D01*
X-1572688Y-749220D02*
X-1450768Y-749220D01*
X-1410128Y-749220D02*
X-1359328Y-749220D01*
X-1323768Y-749220D02*
X-1272968Y-749220D01*
X-1257728Y-749220D02*
X-1115488Y-749220D01*
X-1029128Y-749220D02*
X-983408Y-749220D01*
X-688768Y-749220D02*
X-556688Y-749220D01*
X-1567608Y-744140D02*
X-1455848Y-744140D01*
X-1410128Y-744140D02*
X-1359328Y-744140D01*
X-1323768Y-744140D02*
X-1272968Y-744140D01*
X-1257728Y-744140D02*
X-1115488Y-744140D01*
X-1029128Y-744140D02*
X-983408Y-744140D01*
X-683688Y-744140D02*
X-556688Y-744140D01*
X-1562528Y-739060D02*
X-1460928Y-739060D01*
X-1410128Y-739060D02*
X-1359328Y-739060D01*
X-1323768Y-739060D02*
X-1272968Y-739060D01*
X-1257728Y-739060D02*
X-1115488Y-739060D01*
X-1029128Y-739060D02*
X-983408Y-739060D01*
X-683688Y-739060D02*
X-556688Y-739060D01*
X-1557448Y-733980D02*
X-1466008Y-733980D01*
X-1410128Y-733980D02*
X-1359328Y-733980D01*
X-1323768Y-733980D02*
X-1272968Y-733980D01*
X-1257728Y-733980D02*
X-1115488Y-733980D01*
X-1029128Y-733980D02*
X-983408Y-733980D01*
X-678608Y-733980D02*
X-556688Y-733980D01*
X-1552368Y-728900D02*
X-1471088Y-728900D01*
X-1410128Y-728900D02*
X-1359328Y-728900D01*
X-1323768Y-728900D02*
X-1272968Y-728900D01*
X-1257728Y-728900D02*
X-1115488Y-728900D01*
X-1029128Y-728900D02*
X-983408Y-728900D01*
X-673528Y-728900D02*
X-556688Y-728900D01*
X-1537128Y-723820D02*
X-1486328Y-723820D01*
X-1410128Y-723820D02*
X-1359328Y-723820D01*
X-1323768Y-723820D02*
X-1272968Y-723820D01*
X-1257728Y-723820D02*
X-1115488Y-723820D01*
X-1029128Y-723820D02*
X-983408Y-723820D01*
X-663368Y-723820D02*
X-556688Y-723820D01*
X-1193284Y-1435105D02*
X-1152644Y-1435105D01*
X-1137404Y-1435105D02*
X-1096764Y-1435105D01*
X-1040884Y-1435105D02*
X-990084Y-1435105D01*
X-944364Y-1435105D02*
X-903724Y-1435105D01*
X-893564Y-1435105D02*
X-847844Y-1435105D01*
X-771644Y-1435105D02*
X-731004Y-1435105D01*
X-654804Y-1435105D02*
X-624324Y-1435105D01*
X-609084Y-1435105D02*
X-573524Y-1435105D01*
X-517644Y-1435105D02*
X-477004Y-1435105D01*
X-400804Y-1435105D02*
X-360164Y-1435105D01*
X-304284Y-1435105D02*
X-263644Y-1435105D01*
X-217924Y-1435105D02*
X-172204Y-1435105D01*
X-121404Y-1435105D02*
X-80764Y-1435105D01*
X-70604Y-1435105D02*
X-35044Y-1435105D01*
X-9644Y-1435105D02*
X+41156Y-1435105D01*
X+86876Y-1435105D02*
X+137676Y-1435105D01*
X-1188204Y-1430025D02*
X-1152644Y-1430025D01*
X-1147564Y-1430025D02*
X-1091684Y-1430025D01*
X-1051044Y-1430025D02*
X-979924Y-1430025D01*
X-944364Y-1430025D02*
X-903724Y-1430025D01*
X-893564Y-1430025D02*
X-837684Y-1430025D01*
X-786884Y-1430025D02*
X-715764Y-1430025D01*
X-664964Y-1430025D02*
X-614164Y-1430025D01*
X-609084Y-1430025D02*
X-573524Y-1430025D01*
X-532884Y-1430025D02*
X-461764Y-1430025D01*
X-400804Y-1430025D02*
X-360164Y-1430025D01*
X-319524Y-1430025D02*
X-248404Y-1430025D01*
X-217924Y-1430025D02*
X-162044Y-1430025D01*
X-121404Y-1430025D02*
X-29964Y-1430025D01*
X-4564Y-1430025D02*
X+41156Y-1430025D01*
X+86876Y-1430025D02*
X+137676Y-1430025D01*
X-1188204Y-1424945D02*
X-1086604Y-1424945D01*
X-1056124Y-1424945D02*
X-974844Y-1424945D01*
X-944364Y-1424945D02*
X-903724Y-1424945D01*
X-893564Y-1424945D02*
X-837684Y-1424945D01*
X-791964Y-1424945D02*
X-710684Y-1424945D01*
X-670044Y-1424945D02*
X-573524Y-1424945D01*
X-537964Y-1424945D02*
X-456684Y-1424945D01*
X-400804Y-1424945D02*
X-360164Y-1424945D01*
X-324604Y-1424945D02*
X-243324Y-1424945D01*
X-217924Y-1424945D02*
X-162044Y-1424945D01*
X-121404Y-1424945D02*
X-24884Y-1424945D01*
X-4564Y-1424945D02*
X+41156Y-1424945D01*
X+86876Y-1424945D02*
X+132596Y-1424945D01*
X-1188204Y-1419865D02*
X-1081524Y-1419865D01*
X-1061204Y-1419865D02*
X-969764Y-1419865D01*
X-944364Y-1419865D02*
X-903724Y-1419865D01*
X-893564Y-1419865D02*
X-832604Y-1419865D01*
X-797044Y-1419865D02*
X-705604Y-1419865D01*
X-670044Y-1419865D02*
X-573524Y-1419865D01*
X-543044Y-1419865D02*
X-451604Y-1419865D01*
X-400804Y-1419865D02*
X-360164Y-1419865D01*
X-329684Y-1419865D02*
X-238244Y-1419865D01*
X-217924Y-1419865D02*
X-156964Y-1419865D01*
X-121404Y-1419865D02*
X-24884Y-1419865D01*
X-4564Y-1419865D02*
X+46236Y-1419865D01*
X+86876Y-1419865D02*
X+132596Y-1419865D01*
X-1188204Y-1414785D02*
X-1081524Y-1414785D01*
X-1066284Y-1414785D02*
X-964684Y-1414785D01*
X-944364Y-1414785D02*
X-903724Y-1414785D01*
X-893564Y-1414785D02*
X-832604Y-1414785D01*
X-802124Y-1414785D02*
X-700524Y-1414785D01*
X-675124Y-1414785D02*
X-573524Y-1414785D01*
X-548124Y-1414785D02*
X-446524Y-1414785D01*
X-400804Y-1414785D02*
X-360164Y-1414785D01*
X-334764Y-1414785D02*
X-233164Y-1414785D01*
X-217924Y-1414785D02*
X-156964Y-1414785D01*
X-121404Y-1414785D02*
X-19804Y-1414785D01*
X+516Y-1414785D02*
X+132596Y-1414785D01*
X-1188204Y-1409705D02*
X-1142484Y-1409705D01*
X-1122164Y-1409705D02*
X-1081524Y-1409705D01*
X-1071364Y-1409705D02*
X-1020564Y-1409705D01*
X-1010404Y-1409705D02*
X-964684Y-1409705D01*
X-944364Y-1409705D02*
X-903724Y-1409705D01*
X-873244Y-1409705D02*
X-832604Y-1409705D01*
X-802124Y-1409705D02*
X-756404Y-1409705D01*
X-746244Y-1409705D02*
X-700524Y-1409705D01*
X-675124Y-1409705D02*
X-634484Y-1409705D01*
X-619244Y-1409705D02*
X-573524Y-1409705D01*
X-548124Y-1409705D02*
X-502404Y-1409705D01*
X-492244Y-1409705D02*
X-446524Y-1409705D01*
X-400804Y-1409705D02*
X-360164Y-1409705D01*
X-334764Y-1409705D02*
X-289044Y-1409705D01*
X-278884Y-1409705D02*
X-233164Y-1409705D01*
X-197604Y-1409705D02*
X-156964Y-1409705D01*
X-121404Y-1409705D02*
X-19804Y-1409705D01*
X+516Y-1409705D02*
X+127516Y-1409705D01*
X-1188204Y-1404625D02*
X-1147564Y-1404625D01*
X-1122164Y-1404625D02*
X-1081524Y-1404625D01*
X-1071364Y-1404625D02*
X-1025644Y-1404625D01*
X-1005324Y-1404625D02*
X-959604Y-1404625D01*
X-944364Y-1404625D02*
X-903724Y-1404625D01*
X-873244Y-1404625D02*
X-832604Y-1404625D01*
X-807204Y-1404625D02*
X-761484Y-1404625D01*
X-741164Y-1404625D02*
X-695444Y-1404625D01*
X-680204Y-1404625D02*
X-634484Y-1404625D01*
X-619244Y-1404625D02*
X-573524Y-1404625D01*
X-553204Y-1404625D02*
X-507484Y-1404625D01*
X-487164Y-1404625D02*
X-441444Y-1404625D01*
X-400804Y-1404625D02*
X-360164Y-1404625D01*
X-339844Y-1404625D02*
X-294124Y-1404625D01*
X-273804Y-1404625D02*
X-228084Y-1404625D01*
X-197604Y-1404625D02*
X-156964Y-1404625D01*
X-121404Y-1404625D02*
X-75684Y-1404625D01*
X-65524Y-1404625D02*
X-19804Y-1404625D01*
X+516Y-1404625D02*
X+127516Y-1404625D01*
X-1188204Y-1399545D02*
X-1147564Y-1399545D01*
X-1137404Y-1399545D02*
X-1086604Y-1399545D01*
X-1056124Y-1399545D02*
X-1030724Y-1399545D01*
X-1000244Y-1399545D02*
X-959604Y-1399545D01*
X-944364Y-1399545D02*
X-903724Y-1399545D01*
X-873244Y-1399545D02*
X-832604Y-1399545D01*
X-807204Y-1399545D02*
X-766564Y-1399545D01*
X-736084Y-1399545D02*
X-695444Y-1399545D01*
X-680204Y-1399545D02*
X-639564Y-1399545D01*
X-614164Y-1399545D02*
X-573524Y-1399545D01*
X-553204Y-1399545D02*
X-512564Y-1399545D01*
X-482084Y-1399545D02*
X-441444Y-1399545D01*
X-400804Y-1399545D02*
X-360164Y-1399545D01*
X-339844Y-1399545D02*
X-299204Y-1399545D01*
X-268724Y-1399545D02*
X-228084Y-1399545D01*
X-197604Y-1399545D02*
X-156964Y-1399545D01*
X-121404Y-1399545D02*
X-80764Y-1399545D01*
X-60444Y-1399545D02*
X-19804Y-1399545D01*
X+5596Y-1399545D02*
X+127516Y-1399545D01*
X-1188204Y-1394465D02*
X-1086604Y-1394465D01*
X-1000244Y-1394465D02*
X-959604Y-1394465D01*
X-944364Y-1394465D02*
X-903724Y-1394465D01*
X-873244Y-1394465D02*
X-832604Y-1394465D01*
X-807204Y-1394465D02*
X-766564Y-1394465D01*
X-736084Y-1394465D02*
X-695444Y-1394465D01*
X-680204Y-1394465D02*
X-639564Y-1394465D01*
X-614164Y-1394465D02*
X-573524Y-1394465D01*
X-553204Y-1394465D02*
X-512564Y-1394465D01*
X-482084Y-1394465D02*
X-441444Y-1394465D01*
X-400804Y-1394465D02*
X-360164Y-1394465D01*
X-339844Y-1394465D02*
X-299204Y-1394465D01*
X-268724Y-1394465D02*
X-228084Y-1394465D01*
X-197604Y-1394465D02*
X-156964Y-1394465D01*
X-121404Y-1394465D02*
X-80764Y-1394465D01*
X-60444Y-1394465D02*
X-19804Y-1394465D01*
X+5596Y-1394465D02*
X+122436Y-1394465D01*
X-1188204Y-1389385D02*
X-1096764Y-1389385D01*
X-1000244Y-1389385D02*
X-959604Y-1389385D01*
X-944364Y-1389385D02*
X-903724Y-1389385D01*
X-873244Y-1389385D02*
X-832604Y-1389385D01*
X-807204Y-1389385D02*
X-766564Y-1389385D01*
X-736084Y-1389385D02*
X-695444Y-1389385D01*
X-680204Y-1389385D02*
X-639564Y-1389385D01*
X-614164Y-1389385D02*
X-573524Y-1389385D01*
X-553204Y-1389385D02*
X-512564Y-1389385D01*
X-482084Y-1389385D02*
X-441444Y-1389385D01*
X-400804Y-1389385D02*
X-360164Y-1389385D01*
X-339844Y-1389385D02*
X-299204Y-1389385D01*
X-268724Y-1389385D02*
X-228084Y-1389385D01*
X-197604Y-1389385D02*
X-156964Y-1389385D01*
X-121404Y-1389385D02*
X-80764Y-1389385D01*
X-60444Y-1389385D02*
X-19804Y-1389385D01*
X+5596Y-1389385D02*
X+122436Y-1389385D01*
X-1188204Y-1384305D02*
X-1117084Y-1384305D01*
X-1000244Y-1384305D02*
X-959604Y-1384305D01*
X-944364Y-1384305D02*
X-903724Y-1384305D01*
X-873244Y-1384305D02*
X-832604Y-1384305D01*
X-807204Y-1384305D02*
X-766564Y-1384305D01*
X-736084Y-1384305D02*
X-695444Y-1384305D01*
X-680204Y-1384305D02*
X-639564Y-1384305D01*
X-614164Y-1384305D02*
X-573524Y-1384305D01*
X-553204Y-1384305D02*
X-512564Y-1384305D01*
X-482084Y-1384305D02*
X-441444Y-1384305D01*
X-405884Y-1384305D02*
X-360164Y-1384305D01*
X-339844Y-1384305D02*
X-299204Y-1384305D01*
X-268724Y-1384305D02*
X-228084Y-1384305D01*
X-197604Y-1384305D02*
X-156964Y-1384305D01*
X-121404Y-1384305D02*
X-80764Y-1384305D01*
X-60444Y-1384305D02*
X-19804Y-1384305D01*
X+10676Y-1384305D02*
X+56396Y-1384305D01*
X+76716Y-1384305D02*
X+122436Y-1384305D01*
X-1188204Y-1379225D02*
X-1142484Y-1379225D01*
X-1000244Y-1379225D02*
X-959604Y-1379225D01*
X-944364Y-1379225D02*
X-903724Y-1379225D01*
X-873244Y-1379225D02*
X-832604Y-1379225D01*
X-807204Y-1379225D02*
X-766564Y-1379225D01*
X-736084Y-1379225D02*
X-695444Y-1379225D01*
X-680204Y-1379225D02*
X-639564Y-1379225D01*
X-614164Y-1379225D02*
X-573524Y-1379225D01*
X-553204Y-1379225D02*
X-512564Y-1379225D01*
X-482084Y-1379225D02*
X-441444Y-1379225D01*
X-405884Y-1379225D02*
X-360164Y-1379225D01*
X-339844Y-1379225D02*
X-299204Y-1379225D01*
X-268724Y-1379225D02*
X-228084Y-1379225D01*
X-197604Y-1379225D02*
X-156964Y-1379225D01*
X-121404Y-1379225D02*
X-80764Y-1379225D01*
X-60444Y-1379225D02*
X-19804Y-1379225D01*
X+10676Y-1379225D02*
X+56396Y-1379225D01*
X+76716Y-1379225D02*
X+122436Y-1379225D01*
X-1188204Y-1374145D02*
X-1147564Y-1374145D01*
X-1127244Y-1374145D02*
X-1101844Y-1374145D01*
X-1056124Y-1374145D02*
X-1030724Y-1374145D01*
X-1005324Y-1374145D02*
X-959604Y-1374145D01*
X-944364Y-1374145D02*
X-903724Y-1374145D01*
X-873244Y-1374145D02*
X-832604Y-1374145D01*
X-807204Y-1374145D02*
X-761484Y-1374145D01*
X-741164Y-1374145D02*
X-695444Y-1374145D01*
X-680204Y-1374145D02*
X-634484Y-1374145D01*
X-619244Y-1374145D02*
X-573524Y-1374145D01*
X-553204Y-1374145D02*
X-507484Y-1374145D01*
X-487164Y-1374145D02*
X-441444Y-1374145D01*
X-410964Y-1374145D02*
X-360164Y-1374145D01*
X-339844Y-1374145D02*
X-294124Y-1374145D01*
X-273804Y-1374145D02*
X-228084Y-1374145D01*
X-197604Y-1374145D02*
X-156964Y-1374145D01*
X-121404Y-1374145D02*
X-80764Y-1374145D01*
X-60444Y-1374145D02*
X-19804Y-1374145D01*
X+10676Y-1374145D02*
X+56396Y-1374145D01*
X+71636Y-1374145D02*
X+117356Y-1374145D01*
X-1188204Y-1369065D02*
X-1147564Y-1369065D01*
X-1132324Y-1369065D02*
X-1086604Y-1369065D01*
X-1071364Y-1369065D02*
X-1025644Y-1369065D01*
X-1010404Y-1369065D02*
X-964684Y-1369065D01*
X-944364Y-1369065D02*
X-903724Y-1369065D01*
X-873244Y-1369065D02*
X-832604Y-1369065D01*
X-802124Y-1369065D02*
X-756404Y-1369065D01*
X-746244Y-1369065D02*
X-700524Y-1369065D01*
X-680204Y-1369065D02*
X-634484Y-1369065D01*
X-619244Y-1369065D02*
X-573524Y-1369065D01*
X-548124Y-1369065D02*
X-502404Y-1369065D01*
X-492244Y-1369065D02*
X-446524Y-1369065D01*
X-431284Y-1369065D02*
X-360164Y-1369065D01*
X-334764Y-1369065D02*
X-289044Y-1369065D01*
X-278884Y-1369065D02*
X-233164Y-1369065D01*
X-197604Y-1369065D02*
X-156964Y-1369065D01*
X-121404Y-1369065D02*
X-80764Y-1369065D01*
X-60444Y-1369065D02*
X-19804Y-1369065D01*
X+15756Y-1369065D02*
X+61476Y-1369065D01*
X+71636Y-1369065D02*
X+117356Y-1369065D01*
X-1188204Y-1363985D02*
X-1086604Y-1363985D01*
X-1066284Y-1363985D02*
X-964684Y-1363985D01*
X-944364Y-1363985D02*
X-903724Y-1363985D01*
X-893564Y-1363985D02*
X-817364Y-1363985D01*
X-802124Y-1363985D02*
X-700524Y-1363985D01*
X-675124Y-1363985D02*
X-573524Y-1363985D01*
X-548124Y-1363985D02*
X-446524Y-1363985D01*
X-431284Y-1363985D02*
X-360164Y-1363985D01*
X-334764Y-1363985D02*
X-233164Y-1363985D01*
X-217924Y-1363985D02*
X-141724Y-1363985D01*
X-121404Y-1363985D02*
X-80764Y-1363985D01*
X-60444Y-1363985D02*
X-19804Y-1363985D01*
X+15756Y-1363985D02*
X+61476Y-1363985D01*
X+71636Y-1363985D02*
X+117356Y-1363985D01*
X-1183124Y-1358905D02*
X-1091684Y-1358905D01*
X-1066284Y-1358905D02*
X-969764Y-1358905D01*
X-944364Y-1358905D02*
X-903724Y-1358905D01*
X-893564Y-1358905D02*
X-817364Y-1358905D01*
X-797044Y-1358905D02*
X-705604Y-1358905D01*
X-675124Y-1358905D02*
X-573524Y-1358905D01*
X-543044Y-1358905D02*
X-451604Y-1358905D01*
X-436364Y-1358905D02*
X-360164Y-1358905D01*
X-329684Y-1358905D02*
X-238244Y-1358905D01*
X-217924Y-1358905D02*
X-141724Y-1358905D01*
X-121404Y-1358905D02*
X-80764Y-1358905D01*
X-60444Y-1358905D02*
X-19804Y-1358905D01*
X+15756Y-1358905D02*
X+61476Y-1358905D01*
X+66556Y-1358905D02*
X+112276Y-1358905D01*
X-1183124Y-1353825D02*
X-1091684Y-1353825D01*
X-1061204Y-1353825D02*
X-974844Y-1353825D01*
X-944364Y-1353825D02*
X-903724Y-1353825D01*
X-893564Y-1353825D02*
X-817364Y-1353825D01*
X-791964Y-1353825D02*
X-710684Y-1353825D01*
X-670044Y-1353825D02*
X-573524Y-1353825D01*
X-537964Y-1353825D02*
X-456684Y-1353825D01*
X-436364Y-1353825D02*
X-360164Y-1353825D01*
X-324604Y-1353825D02*
X-243324Y-1353825D01*
X-217924Y-1353825D02*
X-141724Y-1353825D01*
X-121404Y-1353825D02*
X-80764Y-1353825D01*
X-60444Y-1353825D02*
X-19804Y-1353825D01*
X+20836Y-1353825D02*
X+112276Y-1353825D01*
X-1178044Y-1348745D02*
X-1101844Y-1348745D01*
X-1056124Y-1348745D02*
X-979924Y-1348745D01*
X-944364Y-1348745D02*
X-903724Y-1348745D01*
X-893564Y-1348745D02*
X-817364Y-1348745D01*
X-786884Y-1348745D02*
X-715764Y-1348745D01*
X-664964Y-1348745D02*
X-573524Y-1348745D01*
X-532884Y-1348745D02*
X-461764Y-1348745D01*
X-441444Y-1348745D02*
X-360164Y-1348745D01*
X-319524Y-1348745D02*
X-248404Y-1348745D01*
X-217924Y-1348745D02*
X-141724Y-1348745D01*
X-121404Y-1348745D02*
X-80764Y-1348745D01*
X-60444Y-1348745D02*
X-19804Y-1348745D01*
X+20836Y-1348745D02*
X+112276Y-1348745D01*
X-1167884Y-1343665D02*
X-1112004Y-1343665D01*
X-1040884Y-1343665D02*
X-990084Y-1343665D01*
X-944364Y-1343665D02*
X-903724Y-1343665D01*
X-893564Y-1343665D02*
X-817364Y-1343665D01*
X-771644Y-1343665D02*
X-731004Y-1343665D01*
X-654804Y-1343665D02*
X-619244Y-1343665D01*
X-614164Y-1343665D02*
X-573524Y-1343665D01*
X-517644Y-1343665D02*
X-477004Y-1343665D01*
X-436364Y-1343665D02*
X-405884Y-1343665D01*
X-400804Y-1343665D02*
X-360164Y-1343665D01*
X-304284Y-1343665D02*
X-263644Y-1343665D01*
X-217924Y-1343665D02*
X-141724Y-1343665D01*
X-121404Y-1343665D02*
X-80764Y-1343665D01*
X-60444Y-1343665D02*
X-19804Y-1343665D01*
X+25916Y-1343665D02*
X+107196Y-1343665D01*
X-873244Y-1338585D02*
X-832604Y-1338585D01*
X-614164Y-1338585D02*
X-573524Y-1338585D01*
X-197604Y-1338585D02*
X-156964Y-1338585D01*
X+25916Y-1338585D02*
X+107196Y-1338585D01*
X-873244Y-1333505D02*
X-832604Y-1333505D01*
X-614164Y-1333505D02*
X-573524Y-1333505D01*
X-197604Y-1333505D02*
X-156964Y-1333505D01*
X+25916Y-1333505D02*
X+107196Y-1333505D01*
X-944364Y-1328425D02*
X-903724Y-1328425D01*
X-873244Y-1328425D02*
X-832604Y-1328425D01*
X-761484Y-1328425D02*
X-736084Y-1328425D01*
X-614164Y-1328425D02*
X-573524Y-1328425D01*
X-197604Y-1328425D02*
X-156964Y-1328425D01*
X+30996Y-1328425D02*
X+107196Y-1328425D01*
X-944364Y-1323345D02*
X-903724Y-1323345D01*
X-873244Y-1323345D02*
X-832604Y-1323345D01*
X-766564Y-1323345D02*
X-741164Y-1323345D01*
X-614164Y-1323345D02*
X-573524Y-1323345D01*
X-197604Y-1323345D02*
X-156964Y-1323345D01*
X+30996Y-1323345D02*
X+102116Y-1323345D01*
X-944364Y-1318265D02*
X-903724Y-1318265D01*
X-873244Y-1318265D02*
X-842764Y-1318265D01*
X-771644Y-1318265D02*
X-741164Y-1318265D01*
X-614164Y-1318265D02*
X-573524Y-1318265D01*
X-197604Y-1318265D02*
X-167124Y-1318265D01*
X+30996Y-1318265D02*
X+102116Y-1318265D01*
X-944364Y-1313185D02*
X-903724Y-1313185D01*
X-873244Y-1313185D02*
X-852924Y-1313185D01*
X-776724Y-1313185D02*
X-746244Y-1313185D01*
X-614164Y-1313185D02*
X-573524Y-1313185D01*
X-197604Y-1313185D02*
X-177284Y-1313185D01*
X+36076Y-1313185D02*
X+102116Y-1313185D01*
X-944364Y-1308105D02*
X-903724Y-1308105D01*
X-873244Y-1308105D02*
X-863084Y-1308105D01*
X-781804Y-1308105D02*
X-751324Y-1308105D01*
X-614164Y-1308105D02*
X-573524Y-1308105D01*
X-197604Y-1308105D02*
X-187444Y-1308105D01*
X+36076Y-1308105D02*
X+97036Y-1308105D01*
M02*
