G04 PROTEUS GERBER X2 FILE*
%TF.GenerationSoftware,Labcenter,Proteus,8.6-SP2-Build23525*%
%TF.CreationDate,2017-11-29T10:51:07+00:00*%
%TF.FileFunction,AssemblyDrawing,Top*%
%TF.FilePolarity,Positive*%
%TF.Part,Single*%
%FSLAX45Y45*%
%MOMM*%
G01*
%TA.AperFunction,Profile*%
%ADD27C,0.203200*%
%TA.AperFunction,Material*%
%ADD31C,0.203200*%
%ADD46C,0.990600*%
%ADD47C,0.514770*%
%ADD48C,0.172210*%
%ADD49C,0.050800*%
%ADD50C,0.361000*%
%ADD51C,0.316990*%
%ADD52C,0.240790*%
%ADD53C,0.206290*%
%ADD54C,0.106680*%
%ADD55C,0.147950*%
%ADD56C,0.197270*%
%ADD57C,0.154720*%
%ADD58C,0.132080*%
%ADD59C,0.164590*%
%ADD60C,0.444500*%
%ADD61C,0.621790*%
%TD.AperFunction*%
D27*
X-8250000Y-4000000D02*
X+4750000Y-4000000D01*
X+4750000Y+1500000D01*
X-8250000Y+1500000D01*
X-8250000Y-4000000D01*
D31*
X-4403160Y-2063500D02*
X+697160Y-2063500D01*
X+697160Y-412500D01*
X-4403160Y-412500D01*
X-4403160Y-2063500D01*
D46*
X-2645480Y-940820D02*
X-2645480Y-1436120D01*
X-2546420Y-1535180D01*
X-2150180Y-1535180D01*
X-2051120Y-1436120D01*
X-2051120Y-940820D01*
X-1258640Y-1337060D02*
X-1853000Y-1337060D01*
X-1456760Y-940820D01*
X-1456760Y-1535180D01*
D31*
X-8265160Y-1661160D02*
X-7228840Y-1661160D01*
X-7228840Y-116840D01*
X-8265160Y-116840D01*
X-8265160Y-1661160D01*
D47*
X-7695523Y-1300818D02*
X-7644045Y-1300818D01*
X-7592568Y-1249341D01*
X-7592568Y-1043432D01*
X-7644045Y-991955D01*
X-7901432Y-991955D01*
X-7798477Y-786046D02*
X-7901432Y-683091D01*
X-7592568Y-683091D01*
D31*
X-7864300Y+55220D02*
X-6619700Y+55220D01*
X-6619700Y+342240D01*
X-7864300Y+342240D01*
X-7864300Y+55220D01*
D48*
X-7379769Y+147066D02*
X-7379769Y+250393D01*
X-7310885Y+250393D01*
X-7276443Y+215951D01*
X-7276443Y+181508D01*
X-7310885Y+147066D01*
X-7379769Y+147066D01*
X-7138674Y+250393D02*
X-7224779Y+250393D01*
X-7224779Y+215951D01*
X-7155895Y+215951D01*
X-7138674Y+198730D01*
X-7138674Y+164287D01*
X-7155895Y+147066D01*
X-7207558Y+147066D01*
X-7224779Y+164287D01*
D49*
X-5963575Y-995740D02*
X-5965210Y-953794D01*
X-5978471Y-869901D01*
X-6006057Y-786008D01*
X-6050580Y-702115D01*
X-6117880Y-618222D01*
X-6201739Y-548524D01*
X-6285632Y-502349D01*
X-6369525Y-473447D01*
X-6453418Y-459018D01*
X-6502540Y-456775D01*
X-7041505Y-995740D02*
X-7039870Y-953794D01*
X-7026609Y-869901D01*
X-6999023Y-786008D01*
X-6954500Y-702115D01*
X-6887200Y-618222D01*
X-6803341Y-548524D01*
X-6719448Y-502349D01*
X-6635555Y-473447D01*
X-6551662Y-459018D01*
X-6502540Y-456775D01*
X-7041505Y-995740D02*
X-7039870Y-1037686D01*
X-7026609Y-1121579D01*
X-6999023Y-1205472D01*
X-6954500Y-1289365D01*
X-6887200Y-1373258D01*
X-6803341Y-1442956D01*
X-6719448Y-1489131D01*
X-6635555Y-1518033D01*
X-6551662Y-1532462D01*
X-6502540Y-1534705D01*
X-5963575Y-995740D02*
X-5965210Y-1037686D01*
X-5978471Y-1121579D01*
X-6006057Y-1205472D01*
X-6050580Y-1289365D01*
X-6117880Y-1373258D01*
X-6201739Y-1442956D01*
X-6285632Y-1489131D01*
X-6369525Y-1518033D01*
X-6453418Y-1532462D01*
X-6502540Y-1534705D01*
D50*
X-6430339Y-1067941D02*
X-6394239Y-1104041D01*
X-6394239Y-1212342D01*
X-6466440Y-1284542D01*
X-6538640Y-1284542D01*
X-6610841Y-1212342D01*
X-6610841Y-1104041D01*
X-6574741Y-1067941D01*
X-6574741Y-959640D02*
X-6610841Y-923540D01*
X-6610841Y-815239D01*
X-6574741Y-779139D01*
X-6538640Y-779139D01*
X-6502540Y-815239D01*
X-6466440Y-779139D01*
X-6430339Y-779139D01*
X-6394239Y-815239D01*
X-6394239Y-923540D01*
X-6430339Y-959640D01*
X-6502540Y-887440D02*
X-6502540Y-815239D01*
D31*
X-5852160Y-1661160D02*
X-5323840Y-1661160D01*
X-5323840Y-370840D01*
X-5852160Y-370840D01*
X-5852160Y-1661160D01*
D51*
X-5524601Y-1079399D02*
X-5492902Y-1111098D01*
X-5492902Y-1206195D01*
X-5556300Y-1269593D01*
X-5619699Y-1269593D01*
X-5683097Y-1206195D01*
X-5683097Y-1111098D01*
X-5651398Y-1079399D01*
X-5651398Y-825806D02*
X-5683097Y-857505D01*
X-5683097Y-952602D01*
X-5651398Y-984301D01*
X-5524601Y-984301D01*
X-5492902Y-952602D01*
X-5492902Y-857505D01*
X-5524601Y-825806D01*
X-5556300Y-825806D01*
X-5588000Y-857505D01*
X-5588000Y-984301D01*
D31*
X-8094360Y+735840D02*
X-7362840Y+735840D01*
X-7362840Y+1137160D01*
X-8094360Y+1137160D01*
X-8094360Y+735840D01*
D52*
X-7921233Y+1008737D02*
X-7921233Y+888341D01*
X-7897154Y+864262D01*
X-7800838Y+864262D01*
X-7776759Y+888341D01*
X-7776759Y+1008737D01*
X-7680442Y+960579D02*
X-7632284Y+1008737D01*
X-7632284Y+864262D01*
D49*
X-6593091Y+1000940D02*
X-6594077Y+1025525D01*
X-6602085Y+1074696D01*
X-6618785Y+1123867D01*
X-6645883Y+1173038D01*
X-6687234Y+1222127D01*
X-6736405Y+1260613D01*
X-6785576Y+1285721D01*
X-6834747Y+1300832D01*
X-6883918Y+1307427D01*
X-6900000Y+1307849D01*
X-7206909Y+1000940D02*
X-7205923Y+1025525D01*
X-7197915Y+1074696D01*
X-7181215Y+1123867D01*
X-7154117Y+1173038D01*
X-7112766Y+1222127D01*
X-7063595Y+1260613D01*
X-7014424Y+1285721D01*
X-6965253Y+1300832D01*
X-6916082Y+1307427D01*
X-6900000Y+1307849D01*
X-7206909Y+1000940D02*
X-7205923Y+976355D01*
X-7197915Y+927184D01*
X-7181215Y+878013D01*
X-7154117Y+828842D01*
X-7112766Y+779753D01*
X-7063595Y+741267D01*
X-7014424Y+716159D01*
X-6965253Y+701048D01*
X-6916082Y+694453D01*
X-6900000Y+694031D01*
X-6593091Y+1000940D02*
X-6594077Y+976355D01*
X-6602085Y+927184D01*
X-6618785Y+878013D01*
X-6645883Y+828842D01*
X-6687234Y+779753D01*
X-6736405Y+741267D01*
X-6785576Y+716159D01*
X-6834747Y+701048D01*
X-6883918Y+694453D01*
X-6900000Y+694031D01*
D53*
X-6858740Y+959680D02*
X-6838110Y+939050D01*
X-6838110Y+877160D01*
X-6879370Y+835901D01*
X-6920630Y+835901D01*
X-6961890Y+877160D01*
X-6961890Y+939050D01*
X-6941260Y+959680D01*
X-6879370Y+1124719D02*
X-6879370Y+1000940D01*
X-6961890Y+1083459D01*
X-6838110Y+1083459D01*
D49*
X-5943091Y+1100940D02*
X-5944077Y+1125525D01*
X-5952085Y+1174696D01*
X-5968785Y+1223867D01*
X-5995883Y+1273038D01*
X-6037234Y+1322127D01*
X-6086405Y+1360613D01*
X-6135576Y+1385721D01*
X-6184747Y+1400832D01*
X-6233918Y+1407427D01*
X-6250000Y+1407849D01*
X-6556909Y+1100940D02*
X-6555923Y+1125525D01*
X-6547915Y+1174696D01*
X-6531215Y+1223867D01*
X-6504117Y+1273038D01*
X-6462766Y+1322127D01*
X-6413595Y+1360613D01*
X-6364424Y+1385721D01*
X-6315253Y+1400832D01*
X-6266082Y+1407427D01*
X-6250000Y+1407849D01*
X-6556909Y+1100940D02*
X-6555923Y+1076355D01*
X-6547915Y+1027184D01*
X-6531215Y+978013D01*
X-6504117Y+928842D01*
X-6462766Y+879753D01*
X-6413595Y+841267D01*
X-6364424Y+816159D01*
X-6315253Y+801048D01*
X-6266082Y+794453D01*
X-6250000Y+794031D01*
X-5943091Y+1100940D02*
X-5944077Y+1076355D01*
X-5952085Y+1027184D01*
X-5968785Y+978013D01*
X-5995883Y+928842D01*
X-6037234Y+879753D01*
X-6086405Y+841267D01*
X-6135576Y+816159D01*
X-6184747Y+801048D01*
X-6233918Y+794453D01*
X-6250000Y+794031D01*
D53*
X-6208740Y+1059680D02*
X-6188110Y+1039050D01*
X-6188110Y+977160D01*
X-6229370Y+935901D01*
X-6270630Y+935901D01*
X-6311890Y+977160D01*
X-6311890Y+1039050D01*
X-6291260Y+1059680D01*
X-6311890Y+1224719D02*
X-6311890Y+1121569D01*
X-6270630Y+1121569D01*
X-6270630Y+1204089D01*
X-6250000Y+1224719D01*
X-6208740Y+1224719D01*
X-6188110Y+1204089D01*
X-6188110Y+1142199D01*
X-6208740Y+1121569D01*
D31*
X-5353160Y+935840D02*
X-4062840Y+935840D01*
X-4062840Y+1464160D01*
X-5353160Y+1464160D01*
X-5353160Y+935840D01*
D51*
X-4771399Y+1136601D02*
X-4803098Y+1104902D01*
X-4898195Y+1104902D01*
X-4961593Y+1168300D01*
X-4961593Y+1231699D01*
X-4898195Y+1295097D01*
X-4803098Y+1295097D01*
X-4771399Y+1263398D01*
X-4676301Y+1295097D02*
X-4517806Y+1295097D01*
X-4517806Y+1263398D01*
X-4676301Y+1104902D01*
D31*
X-5344160Y+465840D02*
X-4053840Y+465840D01*
X-4053840Y+994160D01*
X-5344160Y+994160D01*
X-5344160Y+465840D01*
D51*
X-4762399Y+666601D02*
X-4794098Y+634902D01*
X-4889195Y+634902D01*
X-4952593Y+698300D01*
X-4952593Y+761699D01*
X-4889195Y+825097D01*
X-4794098Y+825097D01*
X-4762399Y+793398D01*
X-4635602Y+730000D02*
X-4667301Y+761699D01*
X-4667301Y+793398D01*
X-4635602Y+825097D01*
X-4540505Y+825097D01*
X-4508806Y+793398D01*
X-4508806Y+761699D01*
X-4540505Y+730000D01*
X-4635602Y+730000D01*
X-4667301Y+698300D01*
X-4667301Y+666601D01*
X-4635602Y+634902D01*
X-4540505Y+634902D01*
X-4508806Y+666601D01*
X-4508806Y+698300D01*
X-4540505Y+730000D01*
D31*
X-5350300Y+217760D02*
X-4105700Y+217760D01*
X-4105700Y+504780D01*
X-5350300Y+504780D01*
X-5350300Y+217760D01*
D48*
X-4865769Y+309606D02*
X-4865769Y+412933D01*
X-4796885Y+412933D01*
X-4762443Y+378491D01*
X-4762443Y+344048D01*
X-4796885Y+309606D01*
X-4865769Y+309606D01*
X-4624674Y+395712D02*
X-4641895Y+412933D01*
X-4693558Y+412933D01*
X-4710779Y+395712D01*
X-4710779Y+326827D01*
X-4693558Y+309606D01*
X-4641895Y+309606D01*
X-4624674Y+326827D01*
X-4624674Y+344048D01*
X-4641895Y+361270D01*
X-4710779Y+361270D01*
D31*
X-3428900Y+81100D02*
X-3251100Y+81100D01*
X-3251100Y+1274900D01*
X-3428900Y+1274900D01*
X-3428900Y+81100D01*
D54*
X-3307996Y+592656D02*
X-3372004Y+592656D01*
X-3372004Y+645996D01*
X-3361336Y+656664D01*
X-3350668Y+656664D01*
X-3340000Y+645996D01*
X-3340000Y+592656D01*
X-3340000Y+645996D02*
X-3329332Y+656664D01*
X-3307996Y+656664D01*
X-3350668Y+699336D02*
X-3372004Y+720672D01*
X-3307996Y+720672D01*
D31*
X-3240660Y+845840D02*
X-2648840Y+845840D01*
X-2648840Y+1437660D01*
X-3240660Y+1437660D01*
X-3240660Y+845840D01*
D55*
X-3122296Y+1097364D02*
X-3122296Y+1186137D01*
X-3063114Y+1186137D01*
X-3033523Y+1156546D01*
X-3033523Y+1126955D01*
X-3063114Y+1097364D01*
X-3122296Y+1097364D01*
X-2974341Y+1156546D02*
X-2944750Y+1186137D01*
X-2944750Y+1097364D01*
X-2796795Y+1126955D02*
X-2885568Y+1126955D01*
X-2826386Y+1186137D01*
X-2826386Y+1097364D01*
D31*
X+3818840Y-1227000D02*
X+4347160Y-1227000D01*
X+4347160Y-183000D01*
X+3818840Y-183000D01*
X+3818840Y-1227000D01*
D51*
X+3987903Y-958593D02*
X+4146399Y-958593D01*
X+4178098Y-926894D01*
X+4178098Y-800098D01*
X+4146399Y-768399D01*
X+3987903Y-768399D01*
X+3987903Y-514806D02*
X+3987903Y-673301D01*
X+4051301Y-673301D01*
X+4051301Y-546505D01*
X+4083000Y-514806D01*
X+4146399Y-514806D01*
X+4178098Y-546505D01*
X+4178098Y-641602D01*
X+4146399Y-673301D01*
D31*
X+4471100Y+1100D02*
X+4648900Y+1100D01*
X+4648900Y+1194900D01*
X+4471100Y+1194900D01*
X+4471100Y+1100D01*
D54*
X+4592004Y+469984D02*
X+4527996Y+469984D01*
X+4527996Y+523324D01*
X+4538664Y+533992D01*
X+4549332Y+533992D01*
X+4560000Y+523324D01*
X+4560000Y+469984D01*
X+4560000Y+523324D02*
X+4570668Y+533992D01*
X+4592004Y+533992D01*
X+4549332Y+576664D02*
X+4527996Y+598000D01*
X+4592004Y+598000D01*
X+4538664Y+651340D02*
X+4527996Y+662008D01*
X+4527996Y+694012D01*
X+4538664Y+704680D01*
X+4549332Y+704680D01*
X+4560000Y+694012D01*
X+4560000Y+662008D01*
X+4570668Y+651340D01*
X+4592004Y+651340D01*
X+4592004Y+704680D01*
D31*
X+3245100Y-88900D02*
X+4438900Y-88900D01*
X+4438900Y+88900D01*
X+3245100Y+88900D01*
X+3245100Y-88900D01*
D54*
X+3713984Y-32004D02*
X+3713984Y+32004D01*
X+3767324Y+32004D01*
X+3777992Y+21336D01*
X+3777992Y+10668D01*
X+3767324Y+0D01*
X+3713984Y+0D01*
X+3767324Y+0D02*
X+3777992Y-10668D01*
X+3777992Y-32004D01*
X+3820664Y+10668D02*
X+3842000Y+32004D01*
X+3842000Y-32004D01*
X+3895340Y+21336D02*
X+3906008Y+32004D01*
X+3938012Y+32004D01*
X+3948680Y+21336D01*
X+3948680Y+10668D01*
X+3938012Y+0D01*
X+3948680Y-10668D01*
X+3948680Y-21336D01*
X+3938012Y-32004D01*
X+3906008Y-32004D01*
X+3895340Y-21336D01*
X+3916676Y+0D02*
X+3938012Y+0D01*
D31*
X+3411100Y-2104900D02*
X+3588900Y-2104900D01*
X+3588900Y-911100D01*
X+3411100Y-911100D01*
X+3411100Y-2104900D01*
D54*
X+3532004Y-1593344D02*
X+3467996Y-1593344D01*
X+3467996Y-1540004D01*
X+3478664Y-1529336D01*
X+3489332Y-1529336D01*
X+3500000Y-1540004D01*
X+3500000Y-1593344D01*
X+3500000Y-1540004D02*
X+3510668Y-1529336D01*
X+3532004Y-1529336D01*
X+3478664Y-1497332D02*
X+3467996Y-1486664D01*
X+3467996Y-1454660D01*
X+3478664Y-1443992D01*
X+3489332Y-1443992D01*
X+3500000Y-1454660D01*
X+3500000Y-1486664D01*
X+3510668Y-1497332D01*
X+3532004Y-1497332D01*
X+3532004Y-1443992D01*
D31*
X+3908840Y+822340D02*
X+4500660Y+822340D01*
X+4500660Y+1414160D01*
X+3908840Y+1414160D01*
X+3908840Y+822340D01*
D56*
X+4046932Y+1059068D02*
X+4046932Y+1177432D01*
X+4125841Y+1177432D01*
X+4165295Y+1137977D01*
X+4165295Y+1098523D01*
X+4125841Y+1059068D01*
X+4046932Y+1059068D01*
X+4323113Y+1098523D02*
X+4204750Y+1098523D01*
X+4283659Y+1177432D01*
X+4283659Y+1059068D01*
D31*
X+1183000Y-2141160D02*
X+2227000Y-2141160D01*
X+2227000Y-1612840D01*
X+1183000Y-1612840D01*
X+1183000Y-2141160D01*
D51*
X+1451407Y-1781903D02*
X+1451407Y-1940399D01*
X+1483106Y-1972098D01*
X+1609902Y-1972098D01*
X+1641601Y-1940399D01*
X+1641601Y-1781903D01*
X+1736699Y-1813602D02*
X+1768398Y-1781903D01*
X+1863495Y-1781903D01*
X+1895194Y-1813602D01*
X+1895194Y-1845301D01*
X+1863495Y-1877000D01*
X+1768398Y-1877000D01*
X+1736699Y-1908700D01*
X+1736699Y-1972098D01*
X+1895194Y-1972098D01*
D31*
X+2295100Y-2258900D02*
X+3488900Y-2258900D01*
X+3488900Y-2081100D01*
X+2295100Y-2081100D01*
X+2295100Y-2258900D01*
D54*
X+2806656Y-2202004D02*
X+2806656Y-2137996D01*
X+2859996Y-2137996D01*
X+2870664Y-2148664D01*
X+2870664Y-2159332D01*
X+2859996Y-2170000D01*
X+2806656Y-2170000D01*
X+2859996Y-2170000D02*
X+2870664Y-2180668D01*
X+2870664Y-2202004D01*
X+2956008Y-2148664D02*
X+2945340Y-2137996D01*
X+2913336Y-2137996D01*
X+2902668Y-2148664D01*
X+2902668Y-2191336D01*
X+2913336Y-2202004D01*
X+2945340Y-2202004D01*
X+2956008Y-2191336D01*
X+2956008Y-2180668D01*
X+2945340Y-2170000D01*
X+2902668Y-2170000D01*
D31*
X+925100Y-438900D02*
X+2118900Y-438900D01*
X+2118900Y-261100D01*
X+925100Y-261100D01*
X+925100Y-438900D01*
D54*
X+1436656Y-382004D02*
X+1436656Y-317996D01*
X+1489996Y-317996D01*
X+1500664Y-328664D01*
X+1500664Y-339332D01*
X+1489996Y-350000D01*
X+1436656Y-350000D01*
X+1489996Y-350000D02*
X+1500664Y-360668D01*
X+1500664Y-382004D01*
X+1532668Y-328664D02*
X+1543336Y-317996D01*
X+1575340Y-317996D01*
X+1586008Y-328664D01*
X+1586008Y-339332D01*
X+1575340Y-350000D01*
X+1586008Y-360668D01*
X+1586008Y-371336D01*
X+1575340Y-382004D01*
X+1543336Y-382004D01*
X+1532668Y-371336D01*
X+1554004Y-350000D02*
X+1575340Y-350000D01*
D31*
X+945100Y-778900D02*
X+2138900Y-778900D01*
X+2138900Y-601100D01*
X+945100Y-601100D01*
X+945100Y-778900D01*
D54*
X+1456656Y-722004D02*
X+1456656Y-657996D01*
X+1509996Y-657996D01*
X+1520664Y-668664D01*
X+1520664Y-679332D01*
X+1509996Y-690000D01*
X+1456656Y-690000D01*
X+1509996Y-690000D02*
X+1520664Y-700668D01*
X+1520664Y-722004D01*
X+1606008Y-657996D02*
X+1552668Y-657996D01*
X+1552668Y-679332D01*
X+1595340Y-679332D01*
X+1606008Y-690000D01*
X+1606008Y-711336D01*
X+1595340Y-722004D01*
X+1563336Y-722004D01*
X+1552668Y-711336D01*
D31*
X+2345340Y+885840D02*
X+2937160Y+885840D01*
X+2937160Y+1477660D01*
X+2345340Y+1477660D01*
X+2345340Y+885840D01*
D56*
X+2483432Y+1122568D02*
X+2483432Y+1240932D01*
X+2562341Y+1240932D01*
X+2601795Y+1201477D01*
X+2601795Y+1162023D01*
X+2562341Y+1122568D01*
X+2483432Y+1122568D01*
X+2680704Y+1201477D02*
X+2720159Y+1240932D01*
X+2720159Y+1122568D01*
D31*
X-8265160Y-3693160D02*
X-7228840Y-3693160D01*
X-7228840Y-2148840D01*
X-8265160Y-2148840D01*
X-8265160Y-3693160D01*
D47*
X-7695523Y-3332818D02*
X-7644045Y-3332818D01*
X-7592568Y-3281341D01*
X-7592568Y-3075432D01*
X-7644045Y-3023955D01*
X-7901432Y-3023955D01*
X-7849955Y-2869523D02*
X-7901432Y-2818046D01*
X-7901432Y-2663614D01*
X-7849955Y-2612137D01*
X-7798477Y-2612137D01*
X-7747000Y-2663614D01*
X-7747000Y-2818046D01*
X-7695523Y-2869523D01*
X-7592568Y-2869523D01*
X-7592568Y-2612137D01*
D31*
X-7122160Y-2423160D02*
X-6085840Y-2423160D01*
X-6085840Y-1894840D01*
X-7122160Y-1894840D01*
X-7122160Y-2423160D01*
D51*
X-6857593Y-2063903D02*
X-6667399Y-2254098D01*
X-6857593Y-2254098D02*
X-6667399Y-2063903D01*
X-6572301Y-2095602D02*
X-6540602Y-2063903D01*
X-6445505Y-2063903D01*
X-6413806Y-2095602D01*
X-6413806Y-2127301D01*
X-6445505Y-2159000D01*
X-6540602Y-2159000D01*
X-6572301Y-2190700D01*
X-6572301Y-2254098D01*
X-6413806Y-2254098D01*
D31*
X-6914160Y-3622160D02*
X-6385840Y-3622160D01*
X-6385840Y-2585840D01*
X-6914160Y-2585840D01*
X-6914160Y-3622160D01*
D51*
X-6745097Y-3357593D02*
X-6554902Y-3167399D01*
X-6554902Y-3357593D02*
X-6745097Y-3167399D01*
X-6713398Y-3072301D02*
X-6745097Y-3040602D01*
X-6745097Y-2945505D01*
X-6713398Y-2913806D01*
X-6681699Y-2913806D01*
X-6650000Y-2945505D01*
X-6618300Y-2913806D01*
X-6586601Y-2913806D01*
X-6554902Y-2945505D01*
X-6554902Y-3040602D01*
X-6586601Y-3072301D01*
X-6650000Y-3008903D02*
X-6650000Y-2945505D01*
D49*
X-5593091Y-2999060D02*
X-5594077Y-2974475D01*
X-5602085Y-2925304D01*
X-5618785Y-2876133D01*
X-5645883Y-2826962D01*
X-5687234Y-2777873D01*
X-5736405Y-2739387D01*
X-5785576Y-2714279D01*
X-5834747Y-2699168D01*
X-5883918Y-2692573D01*
X-5900000Y-2692151D01*
X-6206909Y-2999060D02*
X-6205923Y-2974475D01*
X-6197915Y-2925304D01*
X-6181215Y-2876133D01*
X-6154117Y-2826962D01*
X-6112766Y-2777873D01*
X-6063595Y-2739387D01*
X-6014424Y-2714279D01*
X-5965253Y-2699168D01*
X-5916082Y-2692573D01*
X-5900000Y-2692151D01*
X-6206909Y-2999060D02*
X-6205923Y-3023645D01*
X-6197915Y-3072816D01*
X-6181215Y-3121987D01*
X-6154117Y-3171158D01*
X-6112766Y-3220247D01*
X-6063595Y-3258733D01*
X-6014424Y-3283841D01*
X-5965253Y-3298952D01*
X-5916082Y-3305547D01*
X-5900000Y-3305969D01*
X-5593091Y-2999060D02*
X-5594077Y-3023645D01*
X-5602085Y-3072816D01*
X-5618785Y-3121987D01*
X-5645883Y-3171158D01*
X-5687234Y-3220247D01*
X-5736405Y-3258733D01*
X-5785576Y-3283841D01*
X-5834747Y-3298952D01*
X-5883918Y-3305547D01*
X-5900000Y-3305969D01*
D57*
X-5869055Y-3091894D02*
X-5853582Y-3107367D01*
X-5853582Y-3153784D01*
X-5884527Y-3184728D01*
X-5915472Y-3184728D01*
X-5946417Y-3153784D01*
X-5946417Y-3107367D01*
X-5930944Y-3091894D01*
X-5915472Y-3030005D02*
X-5946417Y-2999060D01*
X-5853582Y-2999060D01*
X-5915472Y-2906226D02*
X-5946417Y-2875281D01*
X-5853582Y-2875281D01*
D31*
X-5388900Y-3788900D02*
X-5211100Y-3788900D01*
X-5211100Y-2595100D01*
X-5388900Y-2595100D01*
X-5388900Y-3788900D01*
D54*
X-5267996Y-3277344D02*
X-5332004Y-3277344D01*
X-5332004Y-3224004D01*
X-5321336Y-3213336D01*
X-5310668Y-3213336D01*
X-5300000Y-3224004D01*
X-5300000Y-3277344D01*
X-5300000Y-3224004D02*
X-5289332Y-3213336D01*
X-5267996Y-3213336D01*
X-5332004Y-3181332D02*
X-5332004Y-3127992D01*
X-5321336Y-3127992D01*
X-5267996Y-3181332D01*
D31*
X-4924780Y-3834300D02*
X-4637760Y-3834300D01*
X-4637760Y-2589700D01*
X-4924780Y-2589700D01*
X-4924780Y-3834300D01*
D48*
X-4729606Y-3349769D02*
X-4832933Y-3349769D01*
X-4832933Y-3280885D01*
X-4798491Y-3246443D01*
X-4764048Y-3246443D01*
X-4729606Y-3280885D01*
X-4729606Y-3349769D01*
X-4832933Y-3194779D02*
X-4832933Y-3108674D01*
X-4815712Y-3108674D01*
X-4729606Y-3194779D01*
D31*
X-4772240Y-2590300D02*
X-4485220Y-2590300D01*
X-4485220Y-1345700D01*
X-4772240Y-1345700D01*
X-4772240Y-2590300D01*
D48*
X-4577066Y-2105769D02*
X-4680393Y-2105769D01*
X-4680393Y-2036885D01*
X-4645951Y-2002443D01*
X-4611508Y-2002443D01*
X-4577066Y-2036885D01*
X-4577066Y-2105769D01*
X-4628730Y-1933558D02*
X-4645951Y-1950779D01*
X-4663172Y-1950779D01*
X-4680393Y-1933558D01*
X-4680393Y-1881895D01*
X-4663172Y-1864674D01*
X-4645951Y-1864674D01*
X-4628730Y-1881895D01*
X-4628730Y-1933558D01*
X-4611508Y-1950779D01*
X-4594287Y-1950779D01*
X-4577066Y-1933558D01*
X-4577066Y-1881895D01*
X-4594287Y-1864674D01*
X-4611508Y-1864674D01*
X-4628730Y-1881895D01*
D31*
X-3892240Y-3800300D02*
X-3605220Y-3800300D01*
X-3605220Y-2555700D01*
X-3892240Y-2555700D01*
X-3892240Y-3800300D01*
D48*
X-3697066Y-3315769D02*
X-3800393Y-3315769D01*
X-3800393Y-3246885D01*
X-3765951Y-3212443D01*
X-3731508Y-3212443D01*
X-3697066Y-3246885D01*
X-3697066Y-3315769D01*
X-3783172Y-3160779D02*
X-3800393Y-3143558D01*
X-3800393Y-3091895D01*
X-3783172Y-3074674D01*
X-3765951Y-3074674D01*
X-3748730Y-3091895D01*
X-3731508Y-3074674D01*
X-3714287Y-3074674D01*
X-3697066Y-3091895D01*
X-3697066Y-3143558D01*
X-3714287Y-3160779D01*
X-3748730Y-3126337D02*
X-3748730Y-3091895D01*
D31*
X-3364160Y-3843160D02*
X-2835840Y-3843160D01*
X-2835840Y-2552840D01*
X-3364160Y-2552840D01*
X-3364160Y-3843160D01*
D51*
X-3036601Y-3261399D02*
X-3004902Y-3293098D01*
X-3004902Y-3388195D01*
X-3068300Y-3451593D01*
X-3131699Y-3451593D01*
X-3195097Y-3388195D01*
X-3195097Y-3293098D01*
X-3163398Y-3261399D01*
X-3131699Y-3007806D02*
X-3100000Y-3039505D01*
X-3100000Y-3134602D01*
X-3131699Y-3166301D01*
X-3163398Y-3166301D01*
X-3195097Y-3134602D01*
X-3195097Y-3039505D01*
X-3163398Y-3007806D01*
X-3036601Y-3007806D01*
X-3004902Y-3039505D01*
X-3004902Y-3134602D01*
D31*
X-2458900Y-3794900D02*
X-2281100Y-3794900D01*
X-2281100Y-2601100D01*
X-2458900Y-2601100D01*
X-2458900Y-3794900D01*
D54*
X-2337996Y-3283344D02*
X-2402004Y-3283344D01*
X-2402004Y-3230004D01*
X-2391336Y-3219336D01*
X-2380668Y-3219336D01*
X-2370000Y-3230004D01*
X-2370000Y-3283344D01*
X-2370000Y-3230004D02*
X-2359332Y-3219336D01*
X-2337996Y-3219336D01*
X-2359332Y-3133992D02*
X-2359332Y-3198000D01*
X-2402004Y-3155328D01*
X-2337996Y-3155328D01*
D31*
X-5118900Y-2128900D02*
X-4941100Y-2128900D01*
X-4941100Y-935100D01*
X-5118900Y-935100D01*
X-5118900Y-2128900D01*
D54*
X-4997996Y-1660016D02*
X-5062004Y-1660016D01*
X-5062004Y-1606676D01*
X-5051336Y-1596008D01*
X-5040668Y-1596008D01*
X-5030000Y-1606676D01*
X-5030000Y-1660016D01*
X-5030000Y-1606676D02*
X-5019332Y-1596008D01*
X-4997996Y-1596008D01*
X-5040668Y-1553336D02*
X-5062004Y-1532000D01*
X-4997996Y-1532000D01*
X-5062004Y-1425320D02*
X-5062004Y-1478660D01*
X-5040668Y-1478660D01*
X-5040668Y-1435988D01*
X-5030000Y-1425320D01*
X-5008664Y-1425320D01*
X-4997996Y-1435988D01*
X-4997996Y-1467992D01*
X-5008664Y-1478660D01*
D31*
X-5887160Y-2137160D02*
X-5358840Y-2137160D01*
X-5358840Y-1862840D01*
X-5887160Y-1862840D01*
X-5887160Y-2137160D01*
D58*
X-5702248Y-2026416D02*
X-5715456Y-2039624D01*
X-5755080Y-2039624D01*
X-5781496Y-2013208D01*
X-5781496Y-1986792D01*
X-5755080Y-1960376D01*
X-5715456Y-1960376D01*
X-5702248Y-1973584D01*
X-5649416Y-1986792D02*
X-5623000Y-1960376D01*
X-5623000Y-2039624D01*
X-5556960Y-1973584D02*
X-5543752Y-1960376D01*
X-5504128Y-1960376D01*
X-5490920Y-1973584D01*
X-5490920Y-1986792D01*
X-5504128Y-2000000D01*
X-5543752Y-2000000D01*
X-5556960Y-2013208D01*
X-5556960Y-2039624D01*
X-5490920Y-2039624D01*
D31*
X-5090160Y-264160D02*
X-3799840Y-264160D01*
X-3799840Y+10160D01*
X-5090160Y+10160D01*
X-5090160Y-264160D01*
D59*
X-4626050Y-77623D02*
X-4560214Y-77623D01*
X-4593132Y-77623D02*
X-4593132Y-176378D01*
X-4626050Y-176378D02*
X-4560214Y-176378D01*
X-4510836Y-159919D02*
X-4494377Y-176378D01*
X-4428541Y-176378D01*
X-4412082Y-159919D01*
X-4412082Y-143460D01*
X-4428541Y-127000D01*
X-4494377Y-127000D01*
X-4510836Y-110541D01*
X-4510836Y-94082D01*
X-4494377Y-77623D01*
X-4428541Y-77623D01*
X-4412082Y-94082D01*
X-4379163Y-176378D02*
X-4379163Y-77623D01*
X-4296868Y-77623D01*
X-4280409Y-94082D01*
X-4280409Y-110541D01*
X-4296868Y-127000D01*
X-4379163Y-127000D01*
D31*
X-1564160Y-2664160D02*
X-527840Y-2664160D01*
X-527840Y-2135840D01*
X-1564160Y-2135840D01*
X-1564160Y-2664160D01*
D51*
X-1299593Y-2304903D02*
X-1109399Y-2495098D01*
X-1299593Y-2495098D02*
X-1109399Y-2304903D01*
X-855806Y-2431700D02*
X-1046000Y-2431700D01*
X-919204Y-2304903D01*
X-919204Y-2495098D01*
D31*
X-1937160Y-2691160D02*
X-1662840Y-2691160D01*
X-1662840Y-2162840D01*
X-1937160Y-2162840D01*
X-1937160Y-2691160D01*
D59*
X-1767081Y-2459919D02*
X-1750622Y-2476378D01*
X-1750622Y-2525755D01*
X-1783540Y-2558673D01*
X-1816459Y-2558673D01*
X-1849377Y-2525755D01*
X-1849377Y-2476378D01*
X-1832918Y-2459919D01*
X-1816459Y-2394082D02*
X-1849377Y-2361164D01*
X-1750622Y-2361164D01*
D31*
X-2423160Y-391160D02*
X-1894840Y-391160D01*
X-1894840Y-116840D01*
X-2423160Y-116840D01*
X-2423160Y-391160D01*
D58*
X-2238248Y-280416D02*
X-2251456Y-293624D01*
X-2291080Y-293624D01*
X-2317496Y-267208D01*
X-2317496Y-240792D01*
X-2291080Y-214376D01*
X-2251456Y-214376D01*
X-2238248Y-227584D01*
X-2185416Y-240792D02*
X-2159000Y-214376D01*
X-2159000Y-293624D01*
X-2092960Y-227584D02*
X-2079752Y-214376D01*
X-2040128Y-214376D01*
X-2026920Y-227584D01*
X-2026920Y-240792D01*
X-2040128Y-254000D01*
X-2026920Y-267208D01*
X-2026920Y-280416D01*
X-2040128Y-293624D01*
X-2079752Y-293624D01*
X-2092960Y-280416D01*
X-2066544Y-254000D02*
X-2040128Y-254000D01*
D31*
X+2238000Y-3113410D02*
X+3127000Y-3113410D01*
X+3127000Y-2331090D01*
X+2238000Y-2331090D01*
X+2238000Y-3113410D01*
D60*
X+2549150Y-2722250D02*
X+2771400Y-2722250D01*
D31*
X+2278000Y-273410D02*
X+3167000Y-273410D01*
X+3167000Y+508910D01*
X+2278000Y+508910D01*
X+2278000Y-273410D01*
D60*
X+2544700Y+117750D02*
X+2811400Y+117750D01*
X+2678050Y+206650D02*
X+2678050Y+28850D01*
D31*
X+2286000Y-1629410D02*
X+3175000Y-1629410D01*
X+3175000Y-847090D01*
X+2286000Y-847090D01*
X+2286000Y-1629410D01*
D60*
X+2552700Y-1371600D02*
X+2552700Y-1104900D01*
X+2686050Y-1238250D01*
X+2819400Y-1104900D01*
X+2819400Y-1371600D01*
D31*
X+3145340Y+885840D02*
X+3737160Y+885840D01*
X+3737160Y+1477660D01*
X+3145340Y+1477660D01*
X+3145340Y+885840D01*
D56*
X+3283432Y+1122568D02*
X+3283432Y+1240932D01*
X+3362341Y+1240932D01*
X+3401795Y+1201477D01*
X+3401795Y+1162023D01*
X+3362341Y+1122568D01*
X+3283432Y+1122568D01*
X+3460977Y+1221205D02*
X+3480704Y+1240932D01*
X+3539886Y+1240932D01*
X+3559613Y+1221205D01*
X+3559613Y+1201477D01*
X+3539886Y+1181750D01*
X+3480704Y+1181750D01*
X+3460977Y+1162023D01*
X+3460977Y+1122568D01*
X+3559613Y+1122568D01*
D31*
X+3701840Y-3304160D02*
X+4738160Y-3304160D01*
X+4738160Y-1251840D01*
X+3701840Y-1251840D01*
X+3701840Y-3304160D01*
D61*
X+4282180Y-2775433D02*
X+4344359Y-2775433D01*
X+4406538Y-2713254D01*
X+4406538Y-2464538D01*
X+4344359Y-2402359D01*
X+4033463Y-2402359D01*
X+4095642Y-2215821D02*
X+4033463Y-2153642D01*
X+4033463Y-1967105D01*
X+4095642Y-1904926D01*
X+4157821Y-1904926D01*
X+4220000Y-1967105D01*
X+4282180Y-1904926D01*
X+4344359Y-1904926D01*
X+4406538Y-1967105D01*
X+4406538Y-2153642D01*
X+4344359Y-2215821D01*
X+4220000Y-2091463D02*
X+4220000Y-1967105D01*
D31*
X+1138840Y+362840D02*
X+1667160Y+362840D01*
X+1667160Y+637160D01*
X+1138840Y+637160D01*
X+1138840Y+362840D01*
D59*
X+1271327Y+483540D02*
X+1271327Y+467081D01*
X+1287786Y+450622D01*
X+1353622Y+450622D01*
X+1370081Y+467081D01*
X+1370081Y+549377D01*
X+1501754Y+483540D02*
X+1403000Y+483540D01*
X+1468836Y+549377D01*
X+1468836Y+450622D01*
D31*
X+1895100Y+661100D02*
X+3088900Y+661100D01*
X+3088900Y+838900D01*
X+1895100Y+838900D01*
X+1895100Y+661100D01*
D54*
X+2406656Y+717996D02*
X+2406656Y+782004D01*
X+2459996Y+782004D01*
X+2470664Y+771336D01*
X+2470664Y+760668D01*
X+2459996Y+750000D01*
X+2406656Y+750000D01*
X+2459996Y+750000D02*
X+2470664Y+739332D01*
X+2470664Y+717996D01*
X+2513336Y+750000D02*
X+2502668Y+760668D01*
X+2502668Y+771336D01*
X+2513336Y+782004D01*
X+2545340Y+782004D01*
X+2556008Y+771336D01*
X+2556008Y+760668D01*
X+2545340Y+750000D01*
X+2513336Y+750000D01*
X+2502668Y+739332D01*
X+2502668Y+728664D01*
X+2513336Y+717996D01*
X+2545340Y+717996D01*
X+2556008Y+728664D01*
X+2556008Y+739332D01*
X+2545340Y+750000D01*
D31*
X-354900Y+911100D02*
X+838900Y+911100D01*
X+838900Y+1088900D01*
X-354900Y+1088900D01*
X-354900Y+911100D01*
D54*
X+113984Y+967996D02*
X+113984Y+1032004D01*
X+167324Y+1032004D01*
X+177992Y+1021336D01*
X+177992Y+1010668D01*
X+167324Y+1000000D01*
X+113984Y+1000000D01*
X+167324Y+1000000D02*
X+177992Y+989332D01*
X+177992Y+967996D01*
X+220664Y+1010668D02*
X+242000Y+1032004D01*
X+242000Y+967996D01*
X+306008Y+1010668D02*
X+327344Y+1032004D01*
X+327344Y+967996D01*
D31*
X-1364900Y-3708900D02*
X-171100Y-3708900D01*
X-171100Y-3531100D01*
X-1364900Y-3531100D01*
X-1364900Y-3708900D01*
D54*
X-853344Y-3652004D02*
X-853344Y-3587996D01*
X-800004Y-3587996D01*
X-789336Y-3598664D01*
X-789336Y-3609332D01*
X-800004Y-3620000D01*
X-853344Y-3620000D01*
X-800004Y-3620000D02*
X-789336Y-3630668D01*
X-789336Y-3652004D01*
X-703992Y-3609332D02*
X-714660Y-3620000D01*
X-746664Y-3620000D01*
X-757332Y-3609332D01*
X-757332Y-3598664D01*
X-746664Y-3587996D01*
X-714660Y-3587996D01*
X-703992Y-3598664D01*
X-703992Y-3641336D01*
X-714660Y-3652004D01*
X-746664Y-3652004D01*
D31*
X+1241100Y-3858900D02*
X+1418900Y-3858900D01*
X+1418900Y-2665100D01*
X+1241100Y-2665100D01*
X+1241100Y-3858900D01*
D54*
X+1362004Y-3390016D02*
X+1297996Y-3390016D01*
X+1297996Y-3336676D01*
X+1308664Y-3326008D01*
X+1319332Y-3326008D01*
X+1330000Y-3336676D01*
X+1330000Y-3390016D01*
X+1330000Y-3336676D02*
X+1340668Y-3326008D01*
X+1362004Y-3326008D01*
X+1319332Y-3283336D02*
X+1297996Y-3262000D01*
X+1362004Y-3262000D01*
X+1351336Y-3219328D02*
X+1308664Y-3219328D01*
X+1297996Y-3208660D01*
X+1297996Y-3165988D01*
X+1308664Y-3155320D01*
X+1351336Y-3155320D01*
X+1362004Y-3165988D01*
X+1362004Y-3208660D01*
X+1351336Y-3219328D01*
X+1362004Y-3219328D02*
X+1297996Y-3155320D01*
D31*
X+142840Y-3737000D02*
X+671160Y-3737000D01*
X+671160Y-2693000D01*
X+142840Y-2693000D01*
X+142840Y-3737000D01*
D51*
X+311903Y-3468593D02*
X+470399Y-3468593D01*
X+502098Y-3436894D01*
X+502098Y-3310098D01*
X+470399Y-3278399D01*
X+311903Y-3278399D01*
X+343602Y-3183301D02*
X+311903Y-3151602D01*
X+311903Y-3056505D01*
X+343602Y-3024806D01*
X+375301Y-3024806D01*
X+407000Y-3056505D01*
X+438700Y-3024806D01*
X+470399Y-3024806D01*
X+502098Y-3056505D01*
X+502098Y-3151602D01*
X+470399Y-3183301D01*
X+407000Y-3119903D02*
X+407000Y-3056505D01*
D31*
X-2427160Y+362840D02*
X+1149160Y+362840D01*
X+1149160Y+637160D01*
X-2427160Y+637160D01*
X-2427160Y+362840D01*
D59*
X-902346Y+549377D02*
X-902346Y+450622D01*
X-803592Y+450622D01*
X-671919Y+467081D02*
X-688378Y+450622D01*
X-737755Y+450622D01*
X-770673Y+483540D01*
X-770673Y+516459D01*
X-737755Y+549377D01*
X-688378Y+549377D01*
X-671919Y+532918D01*
X-639000Y+450622D02*
X-639000Y+549377D01*
X-573164Y+549377D01*
X-540246Y+516459D01*
X-540246Y+483540D01*
X-573164Y+450622D01*
X-639000Y+450622D01*
X-474409Y+516459D02*
X-441491Y+549377D01*
X-441491Y+450622D01*
M02*
