G04 PROTEUS GERBER X2 FILE*
%TF.GenerationSoftware,Labcenter,Proteus,8.6-SP2-Build23525*%
%TF.CreationDate,2017-11-29T10:51:07+00:00*%
%TF.FileFunction,Legend,Bot*%
%TF.FilePolarity,Positive*%
%TF.Part,Single*%
%FSLAX45Y45*%
%MOMM*%
G01*
%TA.AperFunction,Profile*%
%ADD27C,0.203200*%
%TA.AperFunction,Material*%
%ADD31C,0.203200*%
%TD.AperFunction*%
D27*
X-8250000Y-4000000D02*
X+4750000Y-4000000D01*
X+4750000Y+1500000D01*
X-8250000Y+1500000D01*
X-8250000Y-4000000D01*
D31*
X-849000Y-1640000D02*
X-854080Y-1614124D01*
X-868685Y-1590152D01*
X-891862Y-1568562D01*
X-922660Y-1549830D01*
X-960125Y-1534431D01*
X-1003305Y-1522842D01*
X-1051248Y-1515540D01*
X-1103000Y-1513000D01*
X-1357000Y-1640000D02*
X-1351920Y-1614124D01*
X-1337315Y-1590152D01*
X-1314138Y-1568562D01*
X-1283340Y-1549830D01*
X-1245875Y-1534431D01*
X-1202695Y-1522842D01*
X-1154752Y-1515540D01*
X-1103000Y-1513000D01*
X-849000Y-1640000D02*
X-854080Y-1665876D01*
X-868685Y-1689848D01*
X-891862Y-1711438D01*
X-922660Y-1730170D01*
X-960125Y-1745569D01*
X-1003305Y-1757158D01*
X-1051248Y-1764460D01*
X-1103000Y-1767000D01*
X-1357000Y-1640000D02*
X-1351920Y-1665876D01*
X-1337315Y-1689848D01*
X-1314138Y-1711438D01*
X-1283340Y-1730170D01*
X-1245875Y-1745569D01*
X-1202695Y-1757158D01*
X-1154752Y-1764460D01*
X-1103000Y-1767000D01*
X-1071250Y-1457120D02*
X-1055375Y-1472360D01*
X-1007750Y-1472360D01*
X-976000Y-1441880D01*
X-976000Y-1411400D01*
X-1007750Y-1380920D01*
X-1055375Y-1380920D01*
X-1071250Y-1396160D01*
X-1118875Y-1396160D02*
X-1134750Y-1380920D01*
X-1182375Y-1380920D01*
X-1198250Y-1396160D01*
X-1198250Y-1411400D01*
X-1182375Y-1426640D01*
X-1134750Y-1426640D01*
X-1118875Y-1441880D01*
X-1118875Y-1472360D01*
X-1198250Y-1472360D01*
M02*
